  0
SECTION
  2
HEADER
  9
$ACADVER
  1
AC1015
  9
$ACADMAINTVER
 70
     6
  9
$DWGCODEPAGE
  3
ANSI_1252
  9
$INSBASE
 10
0.0
 20
0.0
 30
0.0
  9
$EXTMIN
 10
-3.385214199
 20
0.0
 30
0.0
  9
$EXTMAX
 10
5.1847105012
 20
8.7317606127
 30
0.0
  9
$LIMMIN
 10
0.0
 20
0.0
  9
$LIMMAX
 10
12.0
 20
9.0
  9
$ORTHOMODE
 70
     0
  9
$REGENMODE
 70
     1
  9
$FILLMODE
 70
     1
  9
$QTEXTMODE
 70
     0
  9
$MIRRTEXT
 70
     1
  9
$LTSCALE
 40
1.0
  9
$ATTMODE
 70
     1
  9
$TEXTSIZE
 40
0.125
  9
$TRACEWID
 40
0.05
  9
$TEXTSTYLE
  7
Standard
  9
$CLAYER
  8
0
  9
$CELTYPE
  6
ByLayer
  9
$CECOLOR
 62
   256
  9
$CELTSCALE
 40
1.0
  9
$DISPSILH
 70
     0
  9
$DIMSCALE
 40
1.0
  9
$DIMASZ
 40
0.13
  9
$DIMEXO
 40
0.0
  9
$DIMDLI
 40
0.38
  9
$DIMRND
 40
0.0
  9
$DIMDLE
 40
0.0
  9
$DIMEXE
 40
0.125
  9
$DIMTP
 40
0.0
  9
$DIMTM
 40
0.0
  9
$DIMTXT
 40
0.125
  9
$DIMCEN
 40
0.09
  9
$DIMTSZ
 40
0.0
  9
$DIMTOL
 70
     0
  9
$DIMLIM
 70
     0
  9
$DIMTIH
 70
     1
  9
$DIMTOH
 70
     1
  9
$DIMSE1
 70
     0
  9
$DIMSE2
 70
     0
  9
$DIMTAD
 70
     0
  9
$DIMZIN
 70
     1
  9
$DIMBLK
  1

  9
$DIMASO
 70
     1
  9
$DIMSHO
 70
     1
  9
$DIMPOST
  1

  9
$DIMAPOST
  1

  9
$DIMALT
 70
     0
  9
$DIMALTD
 70
     2
  9
$DIMALTF
 40
25.4
  9
$DIMLFAC
 40
1.0
  9
$DIMTOFL
 70
     0
  9
$DIMTVP
 40
0.0
  9
$DIMTIX
 70
     0
  9
$DIMSOXD
 70
     0
  9
$DIMSAH
 70
     0
  9
$DIMBLK1
  1

  9
$DIMBLK2
  1

  9
$DIMSTYLE
  2
Standard
  9
$DIMCLRD
 70
     0
  9
$DIMCLRE
 70
     0
  9
$DIMCLRT
 70
     0
  9
$DIMTFAC
 40
1.0
  9
$DIMGAP
 40
0.06
  9
$DIMJUST
 70
     0
  9
$DIMSD1
 70
     0
  9
$DIMSD2
 70
     0
  9
$DIMTOLJ
 70
     1
  9
$DIMTZIN
 70
     1
  9
$DIMALTZ
 70
     0
  9
$DIMALTTZ
 70
     0
  9
$DIMUPT
 70
     0
  9
$DIMDEC
 70
     3
  9
$DIMTDEC
 70
     3
  9
$DIMALTU
 70
     2
  9
$DIMALTTD
 70
     2
  9
$DIMTXSTY
  7
Standard
  9
$DIMAUNIT
 70
     0
  9
$DIMADEC
 70
     3
  9
$DIMALTRND
 40
0.0
  9
$DIMAZIN
 70
     0
  9
$DIMDSEP
 70
    46
  9
$DIMATFIT
 70
     3
  9
$DIMFRAC
 70
     0
  9
$DIMLDRBLK
  1

  9
$DIMLUNIT
 70
     2
  9
$DIMLWD
 70
    -2
  9
$DIMLWE
 70
    -2
  9
$DIMTMOVE
 70
     0
  9
$LUNITS
 70
     2
  9
$LUPREC
 70
     2
  9
$SKETCHINC
 40
0.1
  9
$FILLETRAD
 40
0.0
  9
$AUNITS
 70
     0
  9
$AUPREC
 70
     2
  9
$MENU
  1
.
  9
$ELEVATION
 40
0.0
  9
$PELEVATION
 40
0.0
  9
$THICKNESS
 40
0.0
  9
$LIMCHECK
 70
     0
  9
$CHAMFERA
 40
0.0
  9
$CHAMFERB
 40
0.0
  9
$CHAMFERC
 40
0.0
  9
$CHAMFERD
 40
0.0
  9
$SKPOLY
 70
     0
  9
$TDCREATE
 40
2460973.598849931
  9
$TDUCREATE
 40
2460973.890516598
  9
$TDUPDATE
 40
2460973.598908878
  9
$TDUUPDATE
 40
2460973.890575544
  9
$TDINDWG
 40
0.0000000116
  9
$TDUSRTIMER
 40
0.0000000116
  9
$USRTIMER
 70
     1
  9
$ANGBASE
 50
0.0
  9
$ANGDIR
 70
     0
  9
$PDMODE
 70
     0
  9
$PDSIZE
 40
-1.0
  9
$PLINEWID
 40
0.0
  9
$SPLFRAME
 70
     0
  9
$SPLINETYPE
 70
     6
  9
$SPLINESEGS
 70
     8
  9
$HANDSEED
  5
1D8
  9
$SURFTAB1
 70
     6
  9
$SURFTAB2
 70
     6
  9
$SURFTYPE
 70
     6
  9
$SURFU
 70
     6
  9
$SURFV
 70
     6
  9
$UCSBASE
  2

  9
$UCSNAME
  2

  9
$UCSORG
 10
0.0
 20
0.0
 30
0.0
  9
$UCSXDIR
 10
1.0
 20
0.0
 30
0.0
  9
$UCSYDIR
 10
0.0
 20
1.0
 30
0.0
  9
$UCSORTHOREF
  2

  9
$UCSORTHOVIEW
 70
     0
  9
$UCSORGTOP
 10
0.0
 20
0.0
 30
0.0
  9
$UCSORGBOTTOM
 10
0.0
 20
0.0
 30
0.0
  9
$UCSORGLEFT
 10
0.0
 20
0.0
 30
0.0
  9
$UCSORGRIGHT
 10
0.0
 20
0.0
 30
0.0
  9
$UCSORGFRONT
 10
0.0
 20
0.0
 30
0.0
  9
$UCSORGBACK
 10
0.0
 20
0.0
 30
0.0
  9
$PUCSBASE
  2

  9
$PUCSNAME
  2

  9
$PUCSORG
 10
0.0
 20
0.0
 30
0.0
  9
$PUCSXDIR
 10
1.0
 20
0.0
 30
0.0
  9
$PUCSYDIR
 10
0.0
 20
1.0
 30
0.0
  9
$PUCSORTHOREF
  2

  9
$PUCSORTHOVIEW
 70
     0
  9
$PUCSORGTOP
 10
0.0
 20
0.0
 30
0.0
  9
$PUCSORGBOTTOM
 10
0.0
 20
0.0
 30
0.0
  9
$PUCSORGLEFT
 10
0.0
 20
0.0
 30
0.0
  9
$PUCSORGRIGHT
 10
0.0
 20
0.0
 30
0.0
  9
$PUCSORGFRONT
 10
0.0
 20
0.0
 30
0.0
  9
$PUCSORGBACK
 10
0.0
 20
0.0
 30
0.0
  9
$USERI1
 70
     0
  9
$USERI2
 70
     0
  9
$USERI3
 70
     0
  9
$USERI4
 70
     0
  9
$USERI5
 70
     0
  9
$USERR1
 40
0.0
  9
$USERR2
 40
0.0
  9
$USERR3
 40
0.0
  9
$USERR4
 40
0.0
  9
$USERR5
 40
0.0
  9
$WORLDVIEW
 70
     1
  9
$SHADEDGE
 70
     3
  9
$SHADEDIF
 70
    70
  9
$TILEMODE
 70
     1
  9
$MAXACTVP
 70
    64
  9
$PINSBASE
 10
0.0
 20
0.0
 30
0.0
  9
$PLIMCHECK
 70
     0
  9
$PEXTMIN
 10
1.0000000000E+20
 20
1.0000000000E+20
 30
1.0000000000E+20
  9
$PEXTMAX
 10
-1.0000000000E+20
 20
-1.0000000000E+20
 30
-1.0000000000E+20
  9
$PLIMMIN
 10
0.0
 20
0.0
  9
$PLIMMAX
 10
12.0
 20
9.0
  9
$UNITMODE
 70
     0
  9
$VISRETAIN
 70
     1
  9
$PLINEGEN
 70
     0
  9
$PSLTSCALE
 70
     1
  9
$TREEDEPTH
 70
  3020
  9
$CMLSTYLE
  2
Standard
  9
$CMLJUST
 70
     0
  9
$CMLSCALE
 40
1.0
  9
$PROXYGRAPHICS
 70
     1
  9
$MEASUREMENT
 70
     0
  9
$CELWEIGHT
370
    -1
  9
$ENDCAPS
280
     0
  9
$JOINSTYLE
280
     0
  9
$LWDISPLAY
290
     1
  9
$INSUNITS
 70
     1
  9
$HYPERLINKBASE
  1

  9
$STYLESHEET
  1

  9
$XEDIT
290
     1
  9
$CEPSNTYPE
380
     0
  9
$PSTYLEMODE
290
     1
  9
$FINGERPRINTGUID
  2
{53d14e4e-69f2-487c-bbf4-0f811e1bd1c4}
  9
$VERSIONGUID
  2
{FAEB1C32-E019-11D5-929B-00C0DF256EC4}
  9
$EXTNAMES
290
     1
  9
$PSVPSCALE
 40
0.0
  9
$OLESTARTUP
290
     0
  0
ENDSEC
  0
SECTION
  2
CLASSES
  0
CLASS
  1
ACDBDICTIONARYWDFLT
  2
AcDbDictionaryWithDefault
  3
ObjectDBX Classes
 90
        0
280
     0
281
     0
  0
CLASS
  1
VISUALSTYLE
  2
AcDbVisualStyle
  3
ObjectDBX Classes
 90
     4095
280
     0
281
     0
  0
CLASS
  1
MATERIAL
  2
AcDbMaterial
  3
ObjectDBX Classes
 90
     1153
280
     0
281
     0
  0
CLASS
  1
SCALE
  2
AcDbScale
  3
ObjectDBX Classes
 90
     1153
280
     0
281
     0
  0
CLASS
  1
TABLESTYLE
  2
AcDbTableStyle
  3
ObjectDBX Classes
 90
     4095
280
     0
281
     0
  0
CLASS
  1
MLEADERSTYLE
  2
AcDbMLeaderStyle
  3
ACDB_MLEADERSTYLE_CLASS
 90
     4095
280
     0
281
     0
  0
CLASS
  1
SUN
  2
AcDbSun
  3
SCENEOE
 90
     1153
280
     0
281
     0
  0
CLASS
  1
ACDBPLACEHOLDER
  2
AcDbPlaceHolder
  3
ObjectDBX Classes
 90
        0
280
     0
281
     0
  0
CLASS
  1
LAYOUT
  2
AcDbLayout
  3
ObjectDBX Classes
 90
        0
280
     0
281
     0
  0
ENDSEC
  0
SECTION
  2
TABLES
  0
TABLE
  2
VPORT
  5
8
330
0
100
AcDbSymbolTable
 70
     1
  0
VPORT
  5
29
330
8
100
AcDbSymbolTableRecord
100
AcDbViewportTableRecord
  2
*Active
 70
     0
 10
0.0
 20
0.0
 11
1.0
 21
1.0
 12
0.8997481511
 22
4.3658803063
 13
0.0
 23
0.0
 14
0.5
 24
0.5
 15
0.5
 25
0.5
 16
0.0
 26
0.0
 36
1.0
 17
0.0
 27
0.0
 37
0.0
 40
8.9063958249
 41
0.9814658327
 42
50.0
 43
0.0
 44
0.0
 50
0.0
 51
0.0
 71
     0
 72
   100
 73
     1
 74
     3
 75
     0
 76
     0
 77
     0
 78
     0
281
     0
 65
     1
110
0.0
120
0.0
130
0.0
111
1.0
121
0.0
131
0.0
112
0.0
122
1.0
132
0.0
 79
     0
146
0.0
  0
ENDTAB
  0
TABLE
  2
LTYPE
  5
5
330
0
100
AcDbSymbolTable
 70
     6
  0
LTYPE
  5
14
330
5
100
AcDbSymbolTableRecord
100
AcDbLinetypeTableRecord
  2
ByBlock
 70
     0
  3

 72
    65
 73
     0
 40
0.0
  0
LTYPE
  5
15
330
5
100
AcDbSymbolTableRecord
100
AcDbLinetypeTableRecord
  2
ByLayer
 70
     0
  3

 72
    65
 73
     0
 40
0.0
  0
LTYPE
  5
16
330
5
100
AcDbSymbolTableRecord
100
AcDbLinetypeTableRecord
  2
Continuous
 70
     0
  3
Solid line
 72
    65
 73
     0
 40
0.0
  0
LTYPE
  5
5E
330
5
100
AcDbSymbolTableRecord
100
AcDbLinetypeTableRecord
  2
HIDDEN
 70
     0
  3
Hidden __ __ __ __ __ __ __ __ __ __ __ __ __ __
 72
    65
 73
     2
 40
0.075
 49
0.05
 74
     0
 49
-0.025
 74
     0
  0
LTYPE
  5
5F
330
5
100
AcDbSymbolTableRecord
100
AcDbLinetypeTableRecord
  2
PHANTOM
 70
     0
  3
Phantom ______  __  __  ______  __  __  ______
 72
    65
 73
     6
 40
0.5
 49
0.25
 74
     0
 49
-0.05
 74
     0
 49
0.05
 74
     0
 49
-0.05
 74
     0
 49
0.05
 74
     0
 49
-0.05
 74
     0
  0
LTYPE
  5
60
330
5
100
AcDbSymbolTableRecord
100
AcDbLinetypeTableRecord
  2
CENTER
 70
     0
  3
Center ____ _ ____ _ ____ _ ____ _ ____ _ ____
 72
    65
 73
     4
 40
0.4
 49
0.25
 74
     0
 49
-0.05
 74
     0
 49
0.05
 74
     0
 49
-0.05
 74
     0
  0
LTYPE
  5
61
330
5
100
AcDbSymbolTableRecord
100
AcDbLinetypeTableRecord
  2
CENTERX2
 70
     0
  3
Center (2x) ________  __  ________  __  _____
 72
    65
 73
     4
 40
0.8
 49
0.5
 74
     0
 49
-0.1
 74
     0
 49
0.1
 74
     0
 49
-0.1
 74
     0
  0
LTYPE
  5
62
330
5
100
AcDbSymbolTableRecord
100
AcDbLinetypeTableRecord
  2
DOT2
 70
     0
  3
Dot (.5x) ........................................
 72
    65
 73
     2
 40
0.025
 49
0.0
 74
     0
 49
-0.025
 74
     0
  0
ENDTAB
  0
TABLE
  2
LAYER
  5
2
330
0
100
AcDbSymbolTable
 70
     1
  0
LAYER
  5
10
330
2
100
AcDbSymbolTableRecord
100
AcDbLayerTableRecord
  2
0
 70
     0
 62
     7
  6
Continuous
370
    -3
390
F
  0
ENDTAB
  0
TABLE
  2
STYLE
  5
3
330
0
100
AcDbSymbolTable
 70
     2
  0
STYLE
  5
11
330
3
100
AcDbSymbolTableRecord
100
AcDbTextStyleTableRecord
  2
Standard
 70
     0
 40
0.0
 41
1.0
 50
0.0
 71
     0
 42
0.125
  3
txt
  4

  0
STYLE
  5
1D4
330
3
100
AcDbSymbolTableRecord
100
AcDbTextStyleTableRecord
  2
SLDTEXTSTYLE0
 70
     0
 40
0.0
 41
0.7
 50
0.0
 71
     0
 42
0.125
  3
TXT
  4

  0
ENDTAB
  0
TABLE
  2
VIEW
  5
6
330
0
100
AcDbSymbolTable
 70
     0
  0
ENDTAB
  0
TABLE
  2
UCS
  5
7
330
0
100
AcDbSymbolTable
 70
     0
  0
ENDTAB
  0
TABLE
  2
APPID
  5
9
330
0
100
AcDbSymbolTable
 70
     1
  0
APPID
  5
12
330
9
100
AcDbSymbolTableRecord
100
AcDbRegAppTableRecord
  2
ACAD
 70
     0
  0
ENDTAB
  0
TABLE
  2
DIMSTYLE
  5
A
330
0
100
AcDbSymbolTable
 70
     1
100
AcDbDimStyleTable
  0
DIMSTYLE
105
27
330
A
100
AcDbSymbolTableRecord
100
AcDbDimStyleTableRecord
  2
Standard
 70
     0
178
     0
340
11
  0
ENDTAB
  0
TABLE
  2
BLOCK_RECORD
  5
1
330
0
100
AcDbSymbolTable
 70
     1
  0
BLOCK_RECORD
  5
1F
330
1
100
AcDbSymbolTableRecord
100
AcDbBlockTableRecord
  2
*Model_Space
340
22
  0
BLOCK_RECORD
  5
1B
330
1
100
AcDbSymbolTableRecord
100
AcDbBlockTableRecord
  2
*Paper_Space
340
1E
  0
BLOCK_RECORD
  5
23
330
1
100
AcDbSymbolTableRecord
100
AcDbBlockTableRecord
  2
*Paper_Space0
340
26
  0
ENDTAB
  0
ENDSEC
  0
SECTION
  2
BLOCKS
  0
BLOCK
  5
20
330
1F
100
AcDbEntity
  8
0
100
AcDbBlockBegin
  2
*Model_Space
 70
     0
 10
0.0
 20
0.0
 30
0.0
  3
*Model_Space
  1

  0
ENDBLK
  5
21
330
1F
100
AcDbEntity
  8
0
100
AcDbBlockEnd
  0
BLOCK
  5
1C
330
1B
100
AcDbEntity
 67
     1
  8
0
100
AcDbBlockBegin
  2
*Paper_Space
 70
     0
 10
0.0
 20
0.0
 30
0.0
  3
*Paper_Space
  1

  0
ENDBLK
  5
1D
330
1B
100
AcDbEntity
 67
     1
  8
0
100
AcDbBlockEnd
  0
BLOCK
  5
24
330
23
100
AcDbEntity
  8
0
100
AcDbBlockBegin
  2
*Paper_Space0
 70
     0
 10
0.0
 20
0.0
 30
0.0
  3
*Paper_Space0
  1

  0
ENDBLK
  5
25
330
23
100
AcDbEntity
  8
0
100
AcDbBlockEnd
  0
ENDSEC
  0
SECTION
  2
ENTITIES
  0
SPLINE
  5
65
330
1F
100
AcDbEntity
  8
0
  6
Continuous
 62
     7
370
    25
100
AcDbSpline
210
0.0
220
0.0
230
1.0
 70
     8
 71
     3
 72
    22
 73
    18
 74
     0
 42
0.00000001
 43
0.00000001
 40
0.0
 40
0.0
 40
0.0
 40
0.0
 40
0.125
 40
0.125
 40
0.25
 40
0.25
 40
0.375
 40
0.375
 40
0.5
 40
0.5
 40
0.625
 40
0.625
 40
0.75
 40
0.75
 40
0.875
 40
0.875
 40
1.0
 40
1.0
 40
1.0
 40
1.0
 10
1.809107939945001
 20
8.730183925006411
 30
0.0
 10
1.803282917013357
 20
8.729370688264071
 30
0.0
 10
1.797284136204251
 20
8.728365179683314
 30
0.0
 10
1.784990105198889
 20
8.725960749100281
 30
0.0
 10
1.778640399994387
 20
8.724548145826406
 30
0.0
 10
1.765922535727584
 20
8.72136736082513
 30
0.0
 10
1.759609286713552
 20
8.719616390050298
 30
0.0
 10
1.747072529341085
 20
8.715799231327459
 30
0.0
 10
1.740805489255597
 20
8.713715773197825
 30
0.0
 10
1.728697953758816
 20
8.709346923364222
 30
0.0
 10
1.722829545295085
 20
8.707055543811258
 30
0.0
 10
1.711446191826477
 20
8.70226717797775
 30
0.0
 10
1.705896765839076
 20
8.699751661068124
 30
0.0
 10
1.695440428229838
 20
8.694657270850996
 30
0.0
 10
1.690506244779303
 20
8.692069259689346
 30
0.0
 10
1.681221587707431
 20
8.68683489821006
 30
0.0
 10
1.6768426068207
 20
8.684169354513276
 30
0.0
 10
1.672851467664229
 20
8.681537986824633
 30
0.0
  0
SPLINE
  5
66
330
1F
100
AcDbEntity
  8
0
  6
Continuous
 62
     7
370
    25
100
AcDbSpline
210
0.0
220
0.0
230
1.0
 70
     8
 71
     3
 72
    10
 73
     6
 74
     0
 42
0.00000001
 43
0.00000001
 40
0.0
 40
0.0
 40
0.0
 40
0.0
 40
0.5
 40
0.5
 40
1.0
 40
1.0
 40
1.0
 40
1.0
 10
1.921891278943653
 20
8.722899997587895
 30
0.0
 10
1.902996135330366
 20
8.727041809957232
 30
0.0
 10
1.884103430642626
 20
8.729801392647246
 30
0.0
 10
1.8463233714869
 20
8.732288389806897
 30
0.0
 10
1.827286959843954
 20
8.731996971941383
 30
0.0
 10
1.809107939945001
 20
8.730183925006411
 30
0.0
  0
SPLINE
  5
68
330
1F
100
AcDbEntity
  8
0
  6
Continuous
 62
     7
370
    25
100
AcDbSpline
210
0.0
220
0.0
230
1.0
 70
    24
 71
     3
 72
    12
 73
     8
 74
     0
 42
0.00000001
 43
0.00000001
 40
0.0
 40
0.0
 40
0.0
 40
0.0
 40
0.4999999999999989
 40
0.4999999999999989
 40
0.7499999999999994
 40
0.7499999999999994
 40
1.0
 40
1.0
 40
1.0
 40
1.0
 10
1.931011581301469
 20
8.711307131915442
 30
0.0
 10
1.931744118518949
 20
8.714649001293399
 30
0.0
 10
1.932255876132426
 20
8.716983663692263
 30
0.0
 10
1.932735561186623
 20
8.719172009561147
 30
0.0
 10
1.932847541489419
 20
8.719682868990429
 30
0.0
 10
1.93298895724567
 20
8.72032801434833
 30
0.0
 10
1.933018107382087
 20
8.720460998625988
 30
0.0
 10
1.933018107377635
 20
8.720460998626967
 30
0.0
  0
SPLINE
  5
69
330
1F
100
AcDbEntity
  8
0
  6
Continuous
 62
     7
370
    25
100
AcDbSpline
210
0.0
220
0.0
230
1.0
 70
     8
 71
     3
 72
    34
 73
    30
 74
     0
 42
0.00000001
 43
0.00000001
 40
0.0
 40
0.0
 40
0.0
 40
0.0
 40
0.0624999999999982
 40
0.0624999999999982
 40
0.1249999999999965
 40
0.1249999999999965
 40
0.1874999999999947
 40
0.1874999999999947
 40
0.249999999999993
 40
0.249999999999993
 40
0.3124999999999912
 40
0.3124999999999912
 40
0.3749999999999895
 40
0.3749999999999895
 40
0.4999999999999867
 40
0.4999999999999867
 40
0.5624999999999883
 40
0.5624999999999883
 40
0.62499999999999
 40
0.62499999999999
 40
0.6874999999999917
 40
0.6874999999999917
 40
0.7499999999999933
 40
0.7499999999999933
 40
0.8124999999999951
 40
0.8124999999999951
 40
0.8749999999999968
 40
0.8749999999999968
 40
1.0
 40
1.0
 40
1.0
 40
1.0
 10
1.931011581301469
 20
8.711307131915442
 30
0.0
 10
1.927169700646288
 20
8.712163123531253
 30
0.0
 10
1.923033252318269
 20
8.71289642136719
 30
0.0
 10
1.914612765848611
 20
8.71402161560464
 30
0.0
 10
1.91034459249621
 20
8.71441622388939
 30
0.0
 10
1.901757565732221
 20
8.714823403353359
 30
0.0
 10
1.897603106251183
 20
8.71482841223276
 30
0.0
 10
1.889552803092178
 20
8.714422747646335
 30
0.0
 10
1.885703981286197
 20
8.714008034750165
 30
0.0
 10
1.878642960564315
 20
8.712784239240518
 30
0.0
 10
1.875355932486319
 20
8.711960028374934
 30
0.0
 10
1.869584878087974
 20
8.709977869994548
 30
0.0
 10
1.867054918383506
 20
8.708812503037002
 30
0.0
 10
1.860607390411171
 20
8.704839541581395
 30
0.0
 10
1.857972126681988
 20
8.701636769043114
 30
0.0
 10
1.856705212407751
 20
8.69645350444013
 30
0.0
 10
1.856736738585823
 20
8.694642275468787
 30
0.0
 10
1.85773485286548
 20
8.691056490423467
 30
0.0
 10
1.858696538938937
 20
8.68925281892532
 30
0.0
 10
1.861638923391067
 20
8.685697533755397
 30
0.0
 10
1.863562735339377
 20
8.684010473730737
 30
0.0
 10
1.868367835821179
 20
8.680855425224495
 30
0.0
 10
1.871299908089828
 20
8.679377133491732
 30
0.0
 10
1.877839976235912
 20
8.67689005373374
 30
0.0
 10
1.881543315578571
 20
8.675840742015854
 30
0.0
 10
1.889438908538332
 20
8.674275844057469
 30
0.0
 10
1.893591426782318
 20
8.673759721514102
 30
0.0
 10
1.9064690047312
 20
8.673001219768866
 30
0.0
 10
1.915160067130792
 20
8.673588801608629
 30
0.0
 10
1.923036153388581
 20
8.674922853161682
 30
0.0
  0
SPLINE
  5
6A
330
1F
100
AcDbEntity
  8
0
  6
Continuous
 62
     7
370
    25
100
AcDbSpline
210
0.0
220
0.0
230
1.0
 70
    24
 71
     3
 72
    19
 73
    15
 74
     0
 42
0.00000001
 43
0.00000001
 40
0.0
 40
0.0
 40
0.0
 40
0.0
 40
0.2500000000000003
 40
0.2500000000000003
 40
0.3750000000000003
 40
0.3750000000000003
 40
0.5000000000000002
 40
0.6250000000000001
 40
0.6250000000000001
 40
0.7500000000000001
 40
0.7500000000000001
 40
0.875
 40
0.875
 40
1.0
 40
1.0
 40
1.0
 40
1.0
 10
1.866642086596843
 20
8.417650457421239
 30
0.0
 10
1.872343593857298
 20
8.443661002779601
 30
0.0
 10
1.877920536453893
 20
8.46910327825926
 30
0.0
 10
1.886104901027303
 20
8.506440735924636
 30
0.0
 10
1.888821174256423
 20
8.518832502663546
 30
0.0
 10
1.894061872847031
 20
8.542740817109795
 30
0.0
 10
1.899124724576858
 20
8.565837785778893
 30
0.0
 10
1.903839661374262
 20
8.587347550097059
 30
0.0
 10
1.908375874258928
 20
8.608041967485624
 30
0.0
 10
1.910540916462298
 20
8.617918992254873
 30
0.0
 10
1.914571876256111
 20
8.636308421183939
 30
0.0
 10
1.91645309202637
 20
8.644890616362504
 30
0.0
 10
1.919948620977505
 20
8.660837384503198
 30
0.0
 10
1.921570235622671
 20
8.668235267090218
 30
0.0
 10
1.923036153388554
 20
8.67492285316164
 30
0.0
  0
SPLINE
  5
6C
330
1F
100
AcDbEntity
  8
0
  6
Continuous
 62
     7
370
    25
100
AcDbSpline
210
0.0
220
0.0
230
1.0
 70
     8
 71
     3
 72
    10
 73
     6
 74
     0
 42
0.00000001
 43
0.00000001
 40
0.0
 40
0.0
 40
0.0
 40
0.0
 40
0.5
 40
0.5
 40
1.0
 40
1.0
 40
1.0
 40
1.0
 10
1.944144935811618
 20
8.718021999666043
 30
0.0
 10
1.958841934983346
 20
8.714800419867155
 30
0.0
 10
1.973189493615838
 20
8.71082356697443
 30
0.0
 10
2.001123768223422
 20
8.701225392607762
 30
0.0
 10
2.014778991758133
 20
8.69558323526587
 30
0.0
 10
2.027896342328042
 20
8.689146323932919
 30
0.0
  0
SPLINE
  5
6D
330
1F
100
AcDbEntity
  8
0
  6
Continuous
 62
     7
370
    25
100
AcDbSpline
210
0.0
220
0.0
230
1.0
 70
     8
 71
     3
 72
    16
 73
    12
 74
     0
 42
0.00000001
 43
0.00000001
 40
0.0
 40
0.0
 40
0.0
 40
0.0
 40
0.249999999999999
 40
0.249999999999999
 40
0.499999999999998
 40
0.499999999999998
 40
0.749999999999997
 40
0.749999999999997
 40
0.8749999999999984
 40
0.8749999999999984
 40
1.0
 40
1.0
 40
1.0
 40
1.0
 10
2.027896342328042
 20
8.689146323932919
 30
0.0
 10
2.037137064705324
 20
8.684261572670088
 30
0.0
 10
2.046387106352166
 20
8.678833912802457
 30
0.0
 10
2.064857775619592
 20
8.666921872507675
 30
0.0
 10
2.073687538077696
 20
8.660687479168791
 30
0.0
 10
2.090395938784539
 20
8.647859699735736
 30
0.0
 10
2.098042206887985
 20
8.641441769628521
 30
0.0
 10
2.108301984891417
 20
8.632047219061429
 30
0.0
 10
2.111536557633792
 20
8.628936100065475
 30
0.0
 10
2.117426043473146
 20
8.62297883392142
 30
0.0
 10
2.120108649776047
 20
8.62010830355408
 30
0.0
 10
2.122528533250148
 20
8.617358166812096
 30
0.0
  0
SPLINE
  5
70
330
1F
100
AcDbEntity
  8
0
  6
Continuous
 62
     7
370
    25
100
AcDbSpline
210
0.0
220
0.0
230
1.0
 70
     8
 71
     3
 72
    14
 73
    10
 74
     0
 42
0.00000001
 43
0.00000001
 40
0.0
 40
0.0
 40
0.0
 40
0.0
 40
0.25
 40
0.25
 40
0.5
 40
0.5
 40
0.75
 40
0.75
 40
1.0
 40
1.0
 40
1.0
 40
1.0
 10
1.923036153388582
 20
8.674922853161664
 30
0.0
 10
1.932573822001451
 20
8.67383068456735
 30
0.0
 10
1.9407574213745
 20
8.674598473836394
 30
0.0
 10
1.952527492019167
 20
8.67877166403096
 30
0.0
 10
1.9559982774392
 20
8.68211158426153
 30
0.0
 10
1.957624092658937
 20
8.689870077149507
 30
0.0
 10
1.955756844395516
 20
8.69435525331373
 30
0.0
 10
1.946829386402525
 20
8.703195118807164
 30
0.0
 10
1.93976546112544
 20
8.707540500792986
 30
0.0
 10
1.931011581301472
 20
8.711307131915445
 30
0.0
  0
CIRCLE
  5
74
330
1F
100
AcDbEntity
  8
0
  6
Continuous
 62
     7
370
    25
100
AcDbCircle
 10
1.6738610262
 20
7.6204347759
 30
0.0
 40
0.0499956410386117
  0
SPLINE
  5
7A
330
1F
100
AcDbEntity
  8
0
  6
Continuous
 62
     7
370
    25
100
AcDbSpline
210
0.0
220
0.0
230
1.0
 70
     8
 71
     3
 72
     9
 73
     5
 74
     0
 42
0.00000001
 43
0.00000001
 40
0.0
 40
0.0
 40
0.0
 40
0.0
 40
0.14015109731782
 40
1.0
 40
1.0
 40
1.0
 40
1.0
 10
1.651552318466131
 20
8.666162263058302
 30
0.0
 10
1.651446041104061
 20
8.666078364337029
 30
0.0
 10
1.650687735503156
 20
8.665479733838394
 30
0.0
 10
1.651006523967514
 20
8.665731407096263
 30
0.0
 10
1.651280633878781
 20
8.665947808070879
 30
0.0
  0
CIRCLE
  5
87
330
1F
100
AcDbEntity
  8
0
  6
Continuous
 62
     7
370
    25
100
AcDbCircle
 10
1.4102140278
 20
6.4087855384
 30
0.0
 40
0.0499956410386108
  0
CIRCLE
  5
89
330
1F
100
AcDbEntity
  8
0
  6
Continuous
 62
     7
370
    25
100
AcDbCircle
 10
1.6355896878
 20
7.4445502091
 30
0.0
 40
0.0499956410386125
  0
SPLINE
  5
8A
330
1F
100
AcDbEntity
  8
0
  6
Continuous
 62
     7
370
    25
100
AcDbSpline
210
0.0
220
0.0
230
1.0
 70
     8
 71
     3
 72
     8
 73
     4
 74
     0
 42
0.00000001
 43
0.00000001
 40
0.0
 40
0.0
 40
0.0
 40
0.0
 40
1.0
 40
1.0
 40
1.0
 40
1.0
 10
0.8389250955122692
 20
5.194561419477253
 30
0.0
 10
0.8257206262494363
 20
5.196391662650667
 30
0.0
 10
0.819104648754513
 20
5.197258494267669
 30
0.0
 10
0.819104648754513
 20
5.197258494267669
 30
0.0
  0
SPLINE
  5
8F
330
1F
100
AcDbEntity
  8
0
  6
Continuous
 62
     7
370
    25
100
AcDbSpline
210
0.0
220
0.0
230
1.0
 70
     8
 71
     3
 72
    24
 73
    20
 74
     0
 42
0.00000001
 43
0.00000001
 40
0.0
 40
0.0
 40
0.0
 40
0.0
 40
0.0625
 40
0.0625
 40
0.1250000000000001
 40
0.1250000000000001
 40
0.2499999999999988
 40
0.2499999999999988
 40
0.3124999999999983
 40
0.3124999999999983
 40
0.3749999999999978
 40
0.3749999999999978
 40
0.4999999999999982
 40
0.4999999999999982
 40
0.6249999999999984
 40
0.6249999999999984
 40
0.7499999999999989
 40
0.7499999999999989
 40
1.0
 40
1.0
 40
1.0
 40
1.0
 10
1.204865273758496
 20
5.398593386874865
 30
0.0
 10
1.194160562272988
 20
5.399266547213651
 30
0.0
 10
1.183467534634388
 20
5.399461643778944
 30
0.0
 10
1.162104760860166
 20
5.398914578860598
 30
0.0
 10
1.151464636322659
 20
5.398166554546822
 30
0.0
 10
1.120352439984538
 20
5.394660563010344
 30
0.0
 10
1.100411070552982
 20
5.390648714120611
 30
0.0
 10
1.071530123424907
 20
5.382491929290813
 30
0.0
 10
1.06207138882731
 20
5.379407606669689
 30
0.0
 10
1.043806634706981
 20
5.372691688185411
 30
0.0
 10
1.034954134469076
 20
5.369048186292675
 30
0.0
 10
1.009153631402048
 20
5.35734976072415
 30
0.0
 10
0.9929576409305362
 20
5.348532062694486
 30
0.0
 10
0.9623014013432845
 20
5.329158393797988
 30
0.0
 10
0.947813261797852
 20
5.318556445700236
 30
0.0
 10
0.9210912736749396
 20
5.296376392241308
 30
0.0
 10
0.9087505344716686
 20
5.284737080265072
 30
0.0
 10
0.874413547496142
 20
5.248398961578062
 30
0.0
 10
0.8550657331293473
 20
5.222300291881073
 30
0.0
 10
0.8389250955122696
 20
5.194561419477253
 30
0.0
  0
SPLINE
  5
93
330
1F
100
AcDbEntity
  8
0
  6
Continuous
 62
     7
370
    25
100
AcDbSpline
210
0.0
220
0.0
230
1.0
 70
     8
 71
     3
 72
     8
 73
     4
 74
     0
 42
0.00000001
 43
0.00000001
 40
0.0
 40
0.0
 40
0.0
 40
0.0
 40
1.0
 40
1.0
 40
1.0
 40
1.0
 10
1.471036362947108
 20
5.05435516984375
 30
0.0
 10
1.471036362947108
 20
5.05435516984375
 30
0.0
 10
1.46466441783692
 20
5.056335288723594
 30
0.0
 10
1.451905093659628
 20
5.060196304797852
 30
0.0
  0
SPLINE
  5
94
330
1F
100
AcDbEntity
  8
0
  6
Continuous
 62
     7
370
    25
100
AcDbSpline
210
0.0
220
0.0
230
1.0
 70
     8
 71
     3
 72
    22
 73
    18
 74
     0
 42
0.00000001
 43
0.00000001
 40
0.0
 40
0.0
 40
0.0
 40
0.0
 40
0.2499999999999925
 40
0.2499999999999925
 40
0.3749999999999908
 40
0.3749999999999908
 40
0.4999999999999891
 40
0.4999999999999891
 40
0.6249999999999875
 40
0.6249999999999875
 40
0.6874999999999887
 40
0.6874999999999887
 40
0.7499999999999899
 40
0.7499999999999899
 40
0.874999999999995
 40
0.874999999999995
 40
1.0
 40
1.0
 40
1.0
 40
1.0
 10
1.451905093659628
 20
5.060196304797853
 30
0.0
 10
1.448849142717092
 20
5.092127394977459
 30
0.0
 10
1.442192709053052
 20
5.123981610723813
 30
0.0
 10
1.426114674534139
 20
5.171549708537293
 30
0.0
 10
1.419729062008193
 20
5.187369619090774
 30
0.0
 10
1.404588120316103
 20
5.218908400939787
 30
0.0
 10
1.39592230264024
 20
5.234428758921553
 30
0.0
 10
1.376247027551743
 20
5.264691724544044
 30
0.0
 10
1.365227095366065
 20
5.27946623459998
 30
0.0
 10
1.346576590486036
 20
5.300972627820619
 30
0.0
 10
1.339973501458079
 20
5.308060570193274
 30
0.0
 10
1.326152694361716
 20
5.321803984310614
 30
0.0
 10
1.318936486785412
 20
5.328463415831781
 30
0.0
 10
1.296307021949777
 20
5.347757558424775
 30
0.0
 10
1.279925511425485
 20
5.359716973052474
 30
0.0
 10
1.243999891302478
 20
5.38141260726437
 30
0.0
 10
1.224914808368205
 20
5.390845219753153
 30
0.0
 10
1.204865273758496
 20
5.398593386874865
 30
0.0
  0
SPLINE
  5
95
330
1F
100
AcDbEntity
  8
0
  6
Continuous
 62
     7
370
    25
100
AcDbSpline
210
0.0
220
0.0
230
1.0
 70
    11
 71
     3
 72
    48
 73
    44
 74
     0
 42
0.00000001
 43
0.00000001
 40
0.0
 40
0.0
 40
0.0
 40
0.0
 40
0.0624999999999942
 40
0.0624999999999942
 40
0.1249999999999883
 40
0.1249999999999883
 40
0.1874999999999825
 40
0.1874999999999825
 40
0.2499999999999767
 40
0.2499999999999767
 40
0.281249999999976
 40
0.281249999999976
 40
0.3124999999999753
 40
0.3124999999999753
 40
0.3749999999999772
 40
0.3749999999999772
 40
0.4062499999999779
 40
0.4062499999999779
 40
0.4374999999999786
 40
0.4374999999999786
 40
0.4999999999999799
 40
0.4999999999999799
 40
0.5624999999999811
 40
0.5624999999999811
 40
0.6249999999999825
 40
0.6249999999999825
 40
0.6874999999999837
 40
0.6874999999999837
 40
0.749999999999985
 40
0.749999999999985
 40
0.8124999999999862
 40
0.8124999999999862
 40
0.8437499999999886
 40
0.8437499999999886
 40
0.8749999999999909
 40
0.8749999999999909
 40
0.9062499999999932
 40
0.9062499999999932
 40
0.9374999999999954
 40
0.9374999999999954
 40
0.9687499999999978
 40
0.9687499999999978
 40
1.0
 40
1.0
 40
1.0
 40
1.0
 10
1.111173429789743
 20
5.178279872078145
 30
0.0
 10
1.106718131635492
 20
5.183501073079994
 30
0.0
 10
1.1037806244732
 20
5.189020529441187
 30
0.0
 10
1.099971437853985
 20
5.200472186180207
 30
0.0
 10
1.099205697334601
 20
5.206207619685054
 30
0.0
 10
1.099549227809394
 20
5.217481327657939
 30
0.0
 10
1.100687200113676
 20
5.223067850341647
 30
0.0
 10
1.104738664647524
 20
5.233565340689316
 30
0.0
 10
1.107703902667098
 20
5.238619104053147
 30
0.0
 10
1.113559007620745
 20
5.245405169683013
 30
0.0
 10
1.115740892456127
 20
5.247534771767021
 30
0.0
 10
1.120642888800927
 20
5.251483330702284
 30
0.0
 10
1.123383325803073
 20
5.253308897609818
 30
0.0
 10
1.132281156168335
 20
5.257994926297175
 30
0.0
 10
1.139331985741054
 20
5.260183189612764
 30
0.0
 10
1.150982028778575
 20
5.260780202496511
 30
0.0
 10
1.15493314396444
 20
5.260523235633348
 30
0.0
 10
1.162754265622618
 20
5.259042173517562
 30
0.0
 10
1.16661662371687
 20
5.257805032628519
 30
0.0
 10
1.177272899902612
 20
5.252940847499531
 30
0.0
 10
1.183204608178656
 20
5.24813768014681
 30
0.0
 10
1.191941971250395
 20
5.237751938519751
 30
0.0
 10
1.194967599652324
 20
5.23201998512859
 30
0.0
 10
1.198734362290102
 20
5.220606618979461
 30
0.0
 10
1.199530636310688
 20
5.21475243130586
 30
0.0
 10
1.199217733810929
 20
5.203470932777885
 30
0.0
 10
1.198128321631646
 20
5.197945824783798
 30
0.0
 10
1.194086191186096
 20
5.187358724488544
 30
0.0
 10
1.191204684892866
 20
5.182436401261992
 30
0.0
 10
1.183449414575708
 20
5.17344699878825
 30
0.0
 10
1.178549297058283
 20
5.169393234830474
 30
0.0
 10
1.16960440381337
 20
5.164757471244636
 30
0.0
 10
1.166334902719243
 20
5.163450120242032
 30
0.0
 10
1.159390757706507
 20
5.161536208274248
 30
0.0
 10
1.155621349746013
 20
5.160911301029858
 30
0.0
 10
1.147914542280914
 20
5.160560981895729
 30
0.0
 10
1.143880471813105
 20
5.160836893381553
 30
0.0
 10
1.136060095060932
 20
5.162331830674494
 30
0.0
 10
1.132203888872666
 20
5.163560698446732
 30
0.0
 10
1.125076546560268
 20
5.166781903451847
 30
0.0
 10
1.121779758643641
 20
5.168778789771664
 30
0.0
 10
1.11594086122577
 20
5.173232151898144
 30
0.0
 10
1.113401078866869
 20
5.175669271577219
 30
0.0
 10
1.111173429789743
 20
5.178279872078144
 30
0.0
  0
CIRCLE
  5
98
330
1F
100
AcDbEntity
  8
0
  6
Continuous
 62
     7
370
    25
100
AcDbCircle
 10
1.3719426893
 20
6.2329009716
 30
0.0
 40
0.04999564103861
  0
SPLINE
  5
99
330
1F
100
AcDbEntity
  8
0
  6
Continuous
 62
     7
370
    25
100
AcDbSpline
210
0.0
220
0.0
230
1.0
 70
    24
 71
     3
 72
    20
 73
    16
 74
     0
 42
0.00000001
 43
0.00000001
 40
0.0
 40
0.0
 40
0.0
 40
0.0
 40
0.2499999999999902
 40
0.2499999999999902
 40
0.3749999999999918
 40
0.3749999999999918
 40
0.4999999999999934
 40
0.4999999999999934
 40
0.6249999999999951
 40
0.6249999999999951
 40
0.7499999999999967
 40
0.7499999999999967
 40
0.8749999999999983
 40
0.8749999999999983
 40
1.0
 40
1.0
 40
1.0
 40
1.0
 10
4.962562498369672
 20
3.795028133977206
 30
0.0
 10
4.977569598039126
 20
3.803293095916521
 30
0.0
 10
4.992182128320229
 20
3.811340753976407
 30
0.0
 10
5.013519230797804
 20
3.823091881359891
 30
0.0
 10
5.020494914768544
 20
3.82693364717665
 30
0.0
 10
5.033788530810116
 20
3.834254930638444
 30
0.0
 10
5.04016453778973
 20
3.837766432272474
 30
0.0
 10
5.052370623605195
 20
3.844488772825602
 30
0.0
 10
5.058231296110034
 20
3.847716460803841
 30
0.0
 10
5.069028581191749
 20
3.853662922959344
 30
0.0
 10
5.074009920009654
 20
3.856406329523144
 30
0.0
 10
5.083145835109551
 20
3.861437814103416
 30
0.0
 10
5.087328749762738
 20
3.863741499103547
 30
0.0
 10
5.094670276229891
 20
3.867784747843407
 30
0.0
 10
5.097821347843554
 20
3.869520158917408
 30
0.0
 10
5.100466971743762
 20
3.870977201338833
 30
0.0
  0
SPLINE
  5
9D
330
1F
100
AcDbEntity
  8
0
  6
Continuous
 62
     7
370
    25
100
AcDbSpline
210
0.0
220
0.0
230
1.0
 70
     8
 71
     3
 72
    14
 73
    10
 74
     0
 42
0.00000001
 43
0.00000001
 40
0.0
 40
0.0
 40
0.0
 40
0.0
 40
0.25
 40
0.25
 40
0.5
 40
0.5
 40
0.75
 40
0.75
 40
1.0
 40
1.0
 40
1.0
 40
1.0
 10
5.097147393532197
 20
3.900540897349546
 30
0.0
 10
5.094309950942293
 20
3.905692982025274
 30
0.0
 10
5.091899076821322
 20
3.908965432392633
 30
0.0
 10
5.088365892285325
 20
3.910865879825486
 30
0.0
 10
5.087305745973114
 20
3.909461621334737
 30
0.0
 10
5.087284320603453
 20
3.902842712780028
 30
0.0
 10
5.088353093971921
 20
3.89755263194497
 30
0.0
 10
5.092835614134619
 20
3.885097437954923
 30
0.0
 10
5.096272360380123
 20
3.877908241374155
 30
0.0
 10
5.100466971743762
 20
3.870977201338833
 30
0.0
  0
SPLINE
  5
A0
330
1F
100
AcDbEntity
  8
0
  6
Continuous
 62
     7
370
    25
100
AcDbSpline
210
0.0
220
0.0
230
1.0
 70
     8
 71
     3
 72
    16
 73
    12
 74
     0
 42
0.00000001
 43
0.00000001
 40
0.0
 40
0.0
 40
0.0
 40
0.0
 40
0.2499999999999994
 40
0.2499999999999994
 40
0.4999999999999989
 40
0.4999999999999989
 40
0.7499999999999983
 40
0.7499999999999983
 40
0.8749999999999991
 40
0.8749999999999991
 40
1.0
 40
1.0
 40
1.0
 40
1.0
 10
5.10046697174376
 20
3.870977201338837
 30
0.0
 10
5.104081538358806
 20
3.863728893106241
 30
0.0
 10
5.108292596303265
 20
3.857016532387839
 30
0.0
 10
5.116477450336265
 20
3.846499502476509
 30
0.0
 10
5.120348699814517
 20
3.842803680547316
 30
0.0
 10
5.125957618668789
 20
3.839281195784739
 30
0.0
 10
5.127709260125709
 20
3.839439255804772
 30
0.0
 10
5.127921472342616
 20
3.842419933056955
 30
0.0
 10
5.127598655583573
 20
3.843879256079747
 30
0.0
 10
5.12618226504476
 20
3.847569034228358
 30
0.0
 10
5.125096448738579
 20
3.849792417171545
 30
0.0
 10
5.123677791204339
 20
3.852368343735933
 30
0.0
  0
SPLINE
  5
A6
330
1F
100
AcDbEntity
  8
0
  6
Continuous
 62
     7
370
    25
100
AcDbSpline
210
0.0
220
0.0
230
1.0
 70
     8
 71
     3
 72
    22
 73
    18
 74
     0
 42
0.00000001
 43
0.00000001
 40
0.0
 40
0.0
 40
0.0
 40
0.0
 40
0.125
 40
0.125
 40
0.25
 40
0.25
 40
0.375
 40
0.375
 40
0.5
 40
0.5
 40
0.625
 40
0.625
 40
0.75
 40
0.75
 40
0.875
 40
0.875
 40
1.0
 40
1.0
 40
1.0
 40
1.0
 10
4.751573327417598
 20
3.673049640628926
 30
0.0
 10
4.755114203449768
 20
3.667963174401048
 30
0.0
 10
4.759550443186894
 20
3.663653305393747
 30
0.0
 10
4.769816919026487
 20
3.656892316351526
 30
0.0
 10
4.775570684253773
 20
3.654516858496546
 30
0.0
 10
4.787535202813076
 20
3.652053495490847
 30
0.0
 10
4.793791458281961
 20
3.651970303046784
 30
0.0
 10
4.805802476697115
 20
3.65410603173425
 30
0.0
 10
4.811675846819489
 20
3.65635426932314
 30
0.0
 10
4.822053446820644
 20
3.662797934746276
 30
0.0
 10
4.826674690349817
 20
3.667064649157975
 30
0.0
 10
4.833926288319179
 20
3.676902284693449
 30
0.0
 10
4.836620627703556
 20
3.682539943733166
 30
0.0
 10
4.839718592840396
 20
3.694381103248376
 30
0.0
 10
4.840135948937582
 20
3.700565160801377
 30
0.0
 10
4.83862168209891
 20
3.712783376269435
 30
0.0
 10
4.836725977662995
 20
3.718656045454993
 30
0.0
 10
4.833738727311253
 20
3.724080143484158
 30
0.0
  0
SPLINE
  5
AA
330
1F
100
AcDbEntity
  8
0
  6
Continuous
 62
     7
370
    25
100
AcDbSpline
210
0.0
220
0.0
230
1.0
 70
     8
 71
     3
 72
    20
 73
    16
 74
     0
 42
0.00000001
 43
0.00000001
 40
0.0
 40
0.0
 40
0.0
 40
0.0
 40
0.1249999999999992
 40
0.1249999999999992
 40
0.2499999999999983
 40
0.2499999999999983
 40
0.3749999999999975
 40
0.3749999999999975
 40
0.4999999999999967
 40
0.4999999999999967
 40
0.6249999999999958
 40
0.6249999999999958
 40
0.749999999999995
 40
0.749999999999995
 40
1.0
 40
1.0
 40
1.0
 40
1.0
 10
4.833738727311253
 20
3.724080143484158
 30
0.0
 10
4.830786815785745
 20
3.729440075060851
 30
0.0
 10
4.826772413393519
 20
3.734265670125371
 30
0.0
 10
4.817351541689824
 20
3.742006010663659
 30
0.0
 10
4.811844859510244
 20
3.745001342459739
 30
0.0
 10
4.800240026330457
 20
3.748704916585963
 30
0.0
 10
4.794022222340955
 20
3.749454954761627
 30
0.0
 10
4.781826999343497
 20
3.748598103819272
 30
0.0
 10
4.775782868423379
 20
3.746995656787531
 30
0.0
 10
4.764718086847334
 20
3.741649512028587
 30
0.0
 10
4.759740683659614
 20
3.737949103935766
 30
0.0
 10
4.751411304442266
 20
3.728837829931074
 30
0.0
 10
4.748185087896263
 20
3.723575177133172
 30
0.0
 10
4.741673973248158
 20
3.706335693706247
 30
0.0
 10
4.741878334708208
 20
3.693338534419124
 30
0.0
 10
4.746689298032091
 20
3.681917814047632
 30
0.0
  0
CIRCLE
  5
AD
330
1F
100
AcDbEntity
  8
0
  6
Continuous
 62
     7
370
    25
100
AcDbCircle
 10
4.1030778622
 20
3.3216783221
 30
0.0
 40
0.0400000000000006
  0
CIRCLE
  5
BC
330
1F
100
AcDbEntity
  8
0
  6
Continuous
 62
     7
370
    25
100
AcDbCircle
 10
2.7628846994
 20
2.583584638
 30
0.0
 40
0.0400000000000007
  0
CIRCLE
  5
BF
330
1F
100
AcDbEntity
  8
0
  6
Continuous
 62
     7
370
    25
100
AcDbCircle
 10
3.8140165918
 20
3.1624816451
 30
0.0
 40
0.0400000000000011
  0
LWPOLYLINE
  5
C2
330
1F
100
AcDbEntity
  8
0
  6
Continuous
 62
     7
370
    25
100
AcDbPolyline
 90
       10
 70
   128
 43
0.0
 10
2.5800267317
 20
1.9413423153
 10
2.5908508745
 20
1.9248375971
 10
2.6030630912
 20
1.9120152219
 10
2.6162923199
 20
1.9032647912
 10
2.6301365972
 20
1.8988521822
 10
2.6441752717
 20
1.89891147
 10
2.6579817854
 20
1.9034408531
 10
2.6711366343
 20
1.9123027085
 10
2.6832401151
 20
1.9252277732
 10
2.6939244695
 20
1.9418233256
  0
SPLINE
  5
CB
330
1F
100
AcDbEntity
  8
0
  6
Continuous
 62
     7
370
    25
100
AcDbSpline
210
0.0
220
0.0
230
1.0
 70
    11
 71
     3
 72
    46
 73
    42
 74
     0
 42
0.00000001
 43
0.00000001
 40
0.0
 40
0.0
 40
0.0
 40
0.0
 40
0.0624999999999994
 40
0.0624999999999994
 40
0.1249999999999988
 40
0.1249999999999988
 40
0.1874999999999983
 40
0.1874999999999983
 40
0.2499999999999977
 40
0.2499999999999977
 40
0.3124999999999971
 40
0.3124999999999971
 40
0.3749999999999965
 40
0.3749999999999965
 40
0.4374999999999959
 40
0.4374999999999959
 40
0.4999999999999953
 40
0.4999999999999953
 40
0.5624999999999948
 40
0.5624999999999948
 40
0.6249999999999942
 40
0.6249999999999942
 40
0.6874999999999936
 40
0.6874999999999936
 40
0.7187499999999947
 40
0.7187499999999947
 40
0.7499999999999957
 40
0.7499999999999957
 40
0.7812499999999967
 40
0.7812499999999967
 40
0.8124999999999978
 40
0.8124999999999978
 40
0.8437499999999988
 40
0.8437499999999988
 40
0.8749999999999998
 40
0.8749999999999998
 40
0.9062500000000009
 40
0.9062500000000009
 40
0.9375000000000019
 40
0.9375000000000019
 40
1.0
 40
1.0
 40
1.0
 40
1.0
 10
2.526218030292833
 20
2.356952806709605
 30
0.0
 10
2.529483090302065
 20
2.360058418288813
 30
0.0
 10
2.532320731573206
 20
2.363745512237127
 30
0.0
 10
2.537024180746839
 20
2.371908954623805
 30
0.0
 10
2.538913114287056
 20
2.376390678469974
 30
0.0
 10
2.541622458425941
 20
2.386277679058094
 30
0.0
 10
2.542416499393443
 20
2.391581870255362
 30
0.0
 10
2.54244468227743
 20
2.402830851808996
 30
0.0
 10
2.541631479586251
 20
2.408806374071575
 30
0.0
 10
2.537630706175736
 20
2.420486099276652
 30
0.0
 10
2.534267261617203
 20
2.426114078562103
 30
0.0
 10
2.525440759837621
 20
2.434287960950625
 30
0.0
 10
2.520267376248839
 20
2.436478215138211
 30
0.0
 10
2.510606032330529
 20
2.437663459305883
 30
0.0
 10
2.506063278497342
 20
2.436770118366614
 30
0.0
 10
2.49794330750033
 20
2.433350015759749
 30
0.0
 10
2.494275598917082
 20
2.430784297813862
 30
0.0
 10
2.487804999368124
 20
2.424522662122904
 30
0.0
 10
2.48499112881098
 20
2.420812202068346
 30
0.0
 10
2.480315099706125
 20
2.412618153074061
 30
0.0
 10
2.478409024185239
 20
2.408073358235602
 30
0.0
 10
2.475681716862605
 20
2.398181214538047
 30
0.0
 10
2.474868099763897
 20
2.392940344308864
 30
0.0
 10
2.474788820283027
 20
2.384467428638124
 30
0.0
 10
2.474966847204355
 20
2.381596668027302
 30
0.0
 10
2.475824559415757
 20
2.375770311351271
 30
0.0
 10
2.476509104589666
 20
2.37277729301243
 30
0.0
 10
2.478471833966831
 20
2.366948047198178
 30
0.0
 10
2.479787959945916
 20
2.364039405770369
 30
0.0
 10
2.483088918475274
 20
2.358740936260648
 30
0.0
 10
2.485099017168046
 20
2.356297234706513
 30
0.0
 10
2.489491421118001
 20
2.35229927861671
 30
0.0
 10
2.491929433957421
 20
2.350712622937511
 30
0.0
 10
2.496827996425541
 20
2.348524929760689
 30
0.0
 10
2.499327303621064
 20
2.347879461520303
 30
0.0
 10
2.504128433126355
 20
2.347324461284099
 30
0.0
 10
2.506494309911174
 20
2.347411637754908
 30
0.0
 10
2.510986872226281
 20
2.34813757721057
 30
0.0
 10
2.513118666583235
 20
2.348769754698603
 30
0.0
 10
2.519242865295495
 20
2.351303958347468
 30
0.0
 10
2.522952970283601
 20
2.353847195130398
 30
0.0
 10
2.526218030292833
 20
2.356952806709605
 30
0.0
  0
SPLINE
  5
E4
330
1F
100
AcDbEntity
  8
0
  6
Continuous
 62
     7
370
    25
100
AcDbSpline
210
0.0
220
0.0
230
1.0
 70
    24
 71
     3
 72
    26
 73
    22
 74
     0
 42
0.00000001
 43
0.00000001
 40
0.0
 40
0.0
 40
0.0
 40
0.0
 40
0.2499999999999999
 40
0.2499999999999999
 40
0.3749999999999993
 40
0.3749999999999993
 40
0.4999999999999986
 40
0.4999999999999986
 40
0.5624999999999988
 40
0.5624999999999988
 40
0.624999999999999
 40
0.624999999999999
 40
0.7499999999999992
 40
0.7499999999999992
 40
0.8124999999999993
 40
0.8124999999999993
 40
0.8749999999999996
 40
0.8749999999999996
 40
0.9374999999999998
 40
0.9374999999999998
 40
1.0
 40
1.0
 40
1.0
 40
1.0
 10
-1.254858903729458
 20
0.0
 30
0.0
 10
-1.304392637317248
 20
0.0
 30
0.0
 10
-1.353061413914705
 20
0.0
 30
0.0
 10
-1.424606130396765
 20
0.0
 30
0.0
 10
-1.448207760101493
 20
0.0
 30
0.0
 10
-1.494817683108028
 20
0.0
 30
0.0
 10
-1.517362344785953
 20
0.0
 30
0.0
 10
-1.549672245512294
 20
0.0
 30
0.0
 10
-1.560198548654101
 20
0.0
 30
0.0
 10
-1.580702559511526
 20
0.0
 30
0.0
 10
-1.590728304447728
 20
0.0
 30
0.0
 10
-1.619340062396625
 20
0.0
 30
0.0
 10
-1.636575183870071
 20
0.0
 30
0.0
 10
-1.658910381417059
 20
0.0
 30
0.0
 10
-1.665746393250472
 20
0.0
 30
0.0
 10
-1.677648948243676
 20
0.0
 30
0.0
 10
-1.682775723518884
 20
0.0
 30
0.0
 10
-1.691203308860819
 20
0.0
 30
0.0
 10
-1.694502019329671
 20
0.0
 30
0.0
 10
-1.698879134314508
 20
0.0
 30
0.0
 10
-1.7
 20
0.0
 30
0.0
 10
-1.7
 20
0.0
 30
0.0
  0
SPLINE
  5
E6
330
1F
100
AcDbEntity
  8
0
  6
Continuous
 62
     7
370
    25
100
AcDbSpline
210
0.0
220
0.0
230
1.0
 70
     8
 71
     3
 72
     8
 73
     4
 74
     0
 42
0.00000001
 43
0.00000001
 40
0.0
 40
0.0
 40
0.0
 40
0.0
 40
1.0
 40
1.0
 40
1.0
 40
1.0
 10
-3.381799603247083
 20
4.173913043478261
 30
0.0
 10
-3.381799603247083
 20
4.173913043478261
 30
0.0
 10
-3.381275800419575
 20
4.174294221651404
 30
0.0
 10
-3.380255339102801
 20
4.175036045386159
 30
0.0
  0
SPLINE
  5
E7
330
1F
100
AcDbEntity
  8
0
  6
Continuous
 62
     7
370
    25
100
AcDbSpline
210
0.0
220
0.0
230
1.0
 70
     8
 71
     3
 72
    32
 73
    28
 74
     0
 42
0.00000001
 43
0.00000001
 40
0.0
 40
0.0
 40
0.0
 40
0.0
 40
0.1250000000000011
 40
0.1250000000000011
 40
0.1875000000000009
 40
0.1875000000000009
 40
0.2500000000000007
 40
0.2500000000000007
 40
0.3125000000000005
 40
0.3125000000000005
 40
0.3750000000000003
 40
0.3750000000000003
 40
0.4375000000000001
 40
0.4375000000000001
 40
0.4999999999999999
 40
0.4999999999999999
 40
0.5624999999999997
 40
0.5624999999999997
 40
0.6249999999999994
 40
0.6249999999999994
 40
0.6874999999999992
 40
0.6874999999999992
 40
0.749999999999999
 40
0.749999999999999
 40
0.8749999999999996
 40
0.8749999999999996
 40
1.0
 40
1.0
 40
1.0
 40
1.0
 10
-3.0846995237268
 20
4.052863738548837
 30
0.0
 10
-3.102601320870866
 20
4.040684571660295
 30
0.0
 10
-3.121067073204391
 20
4.029825146385614
 30
0.0
 10
-3.149935258421505
 20
4.016250381954881
 30
0.0
 10
-3.159778282790881
 20
4.01218728683442
 30
0.0
 10
-3.179273123484708
 20
4.005398187363969
 30
0.0
 10
-3.188999361360005
 20
4.002632828251442
 30
0.0
 10
-3.208410368625536
 20
3.998509744304281
 30
0.0
 10
-3.218201508860782
 20
3.997147761569364
 30
0.0
 10
-3.237205701767297
 20
3.996082221918622
 30
0.0
 10
-3.246335475588008
 20
3.996364483541917
 30
0.0
 10
-3.263879113702814
 20
3.99851453316686
 30
0.0
 10
-3.272350254727805
 20
4.000402752135829
 30
0.0
 10
-3.288312880952084
 20
4.005682843480471
 30
0.0
 10
-3.29570856049452
 20
4.009026582698354
 30
0.0
 10
-3.309478154901336
 20
4.016948898093817
 30
0.0
 10
-3.315890935489548
 20
4.021567467295006
 30
0.0
 10
-3.327544504577409
 20
4.031706651899577
 30
0.0
 10
-3.332797667773258
 20
4.037217788206242
 30
0.0
 10
-3.342341566514683
 20
4.048982089882463
 30
0.0
 10
-3.346631168605518
 20
4.055236099317156
 30
0.0
 10
-3.354365451717079
 20
4.068395229370664
 30
0.0
 10
-3.357816201956886
 20
4.075325775508969
 30
0.0
 10
-3.366870494586603
 20
4.096596743042541
 30
0.0
 10
-3.371270906206127
 20
4.111516835721874
 30
0.0
 10
-3.377564600124657
 20
4.142476501715243
 30
0.0
 10
-3.379447728204768
 20
4.158520627934577
 30
0.0
 10
-3.380255339102801
 20
4.175036045386158
 30
0.0
  0
SPLINE
  5
E9
330
1F
100
AcDbEntity
  8
0
  6
Continuous
 62
     7
370
    25
100
AcDbSpline
210
0.0
220
0.0
230
1.0
 70
     8
 71
     3
 72
    14
 73
    10
 74
     0
 42
0.00000001
 43
0.00000001
 40
0.0
 40
0.0
 40
0.0
 40
0.0
 40
0.1250000000000008
 40
0.1250000000000008
 40
0.2500000000000016
 40
0.2500000000000016
 40
0.5000000000000022
 40
0.5000000000000022
 40
1.0
 40
1.0
 40
1.0
 40
1.0
 10
1.126123946361324
 20
5.103542275749044
 30
0.0
 10
1.128813680021359
 20
5.102957007187761
 30
0.0
 10
1.131502990884659
 20
5.10212939547628
 30
0.0
 10
1.136571056062766
 20
5.100096835499114
 30
0.0
 10
1.138970884696346
 20
5.098893334451369
 30
0.0
 10
1.145799121303013
 20
5.094765131636988
 30
0.0
 10
1.149648371064402
 20
5.091442639259017
 30
0.0
 10
1.159122140298408
 20
5.08073725355596
 30
0.0
 10
1.162755247045239
 20
5.072663058508019
 30
0.0
 10
1.164402787144696
 20
5.064698738947405
 30
0.0
  0
SPLINE
  5
EA
330
1F
100
AcDbEntity
  8
0
  6
Continuous
 62
     7
370
    25
100
AcDbSpline
210
0.0
220
0.0
230
1.0
 70
     8
 71
     3
 72
    42
 73
    38
 74
     0
 42
0.00000001
 43
0.00000001
 40
0.0
 40
0.0
 40
0.0
 40
0.0
 40
0.0624999999999968
 40
0.0624999999999968
 40
0.0937499999999968
 40
0.0937499999999968
 40
0.1249999999999968
 40
0.1249999999999968
 40
0.1875000000000006
 40
0.1875000000000006
 40
0.2500000000000045
 40
0.2500000000000045
 40
0.3125000000000084
 40
0.3125000000000084
 40
0.3750000000000122
 40
0.3750000000000122
 40
0.4375000000000161
 40
0.4375000000000161
 40
0.50000000000002
 40
0.50000000000002
 40
0.5312500000000189
 40
0.5312500000000189
 40
0.5625000000000177
 40
0.5625000000000177
 40
0.6250000000000152
 40
0.6250000000000152
 40
0.6875000000000127
 40
0.6875000000000127
 40
0.7500000000000101
 40
0.7500000000000101
 40
0.8125000000000077
 40
0.8125000000000077
 40
0.8750000000000051
 40
0.8750000000000051
 40
0.9375000000000027
 40
0.9375000000000027
 40
1.0
 40
1.0
 40
1.0
 40
1.0
 10
1.126123946361323
 20
5.103542275749044
 30
0.0
 10
1.119630251560396
 20
5.104955261529024
 30
0.0
 10
1.11295273570287
 20
5.104987609485854
 30
0.0
 10
1.103840954880347
 20
5.103368038453011
 30
0.0
 10
1.100909226622362
 20
5.10255074494826
 30
0.0
 10
1.095474539823866
 20
5.100527149954052
 30
0.0
 10
1.092946473814271
 20
5.099319995549307
 30
0.0
 10
1.085838366823166
 20
5.095207979291912
 30
0.0
 10
1.081771452580317
 20
5.091814491587139
 30
0.0
 10
1.075123454405332
 20
5.084467455163614
 30
0.0
 10
1.07244698642001
 20
5.080428637267121
 30
0.0
 10
1.068354776323777
 20
5.071922044067994
 30
0.0
 10
1.06695169923657
 20
5.067502865959603
 30
0.0
 10
1.065380240783719
 20
5.058346504011946
 30
0.0
 10
1.06523146405105
 20
5.053629563794739
 30
0.0
 10
1.066285179661727
 20
5.044258280633237
 30
0.0
 10
1.067476248680356
 20
5.039540296232805
 30
0.0
 10
1.071537765148799
 20
5.030131842088333
 30
0.0
 10
1.074331073405557
 20
5.025596899684349
 30
0.0
 10
1.080055656013275
 20
5.019217818442894
 30
0.0
 10
1.082177696786373
 20
5.017216775840639
 30
0.0
 10
1.086920424363481
 20
5.013506394660487
 30
0.0
 10
1.08957646834115
 20
5.011782812013499
 30
0.0
 10
1.098052239865932
 20
5.007394326278782
 30
0.0
 10
1.104559543763421
 20
5.005457241511767
 30
0.0
 10
1.117674470257516
 20
5.004290303227151
 30
0.0
 10
1.124111556633837
 20
5.005051102274781
 30
0.0
 10
1.135445736598272
 20
5.008391778082728
 30
0.0
 10
1.140494475086901
 20
5.010979566388895
 30
0.0
 10
1.149012816339683
 20
5.017096986269713
 30
0.0
 10
1.152612460990238
 20
5.020711026932874
 30
0.0
 10
1.15841030237118
 20
5.028450127000458
 30
0.0
 10
1.160645316170154
 20
5.032588138248414
 30
0.0
 10
1.163920662462424
 20
5.041348623419293
 30
0.0
 10
1.16492465169274
 20
5.045905056971075
 30
0.0
 10
1.165657314469499
 20
5.055162255479106
 30
0.0
 10
1.16538555187372
 20
5.059947988202489
 30
0.0
 10
1.164402787144705
 20
5.064698738947405
 30
0.0
  0
SPLINE
  5
EB
330
1F
100
AcDbEntity
  8
0
  6
Continuous
 62
     7
370
    25
100
AcDbSpline
210
0.0
220
0.0
230
1.0
 70
     8
 71
     3
 72
    14
 73
    10
 74
     0
 42
0.00000001
 43
0.00000001
 40
0.0
 40
0.0
 40
0.0
 40
0.0
 40
0.25
 40
0.25
 40
0.5
 40
0.5
 40
0.75
 40
0.75
 40
1.0
 40
1.0
 40
1.0
 40
1.0
 10
-1.588444389702254
 20
4.991159822351772
 30
0.0
 10
-1.591064621247266
 20
4.994256413795777
 30
0.0
 10
-1.594166999303484
 20
4.99716166282257
 30
0.0
 10
-1.601303872731711
 20
5.00223211242514
 30
0.0
 10
-1.605271543732084
 20
5.004371476664947
 30
0.0
 10
-1.614246044598695
 20
5.007616687395511
 30
0.0
 10
-1.619183266490503
 20
5.008681475193115
 30
0.0
 10
-1.629768653631348
 20
5.009161988976561
 30
0.0
 10
-1.635328510796315
 20
5.008534701250587
 30
0.0
 10
-1.640632614882756
 20
5.006986355626259
 30
0.0
  0
SPLINE
  5
EC
330
1F
100
AcDbEntity
  8
0
  6
Continuous
 62
     7
370
    25
100
AcDbSpline
210
0.0
220
0.0
230
1.0
 70
     8
 71
     3
 72
    42
 73
    38
 74
     0
 42
0.00000001
 43
0.00000001
 40
0.0
 40
0.0
 40
0.0
 40
0.0
 40
0.0625000000000103
 40
0.0625000000000103
 40
0.0937500000000145
 40
0.0937500000000145
 40
0.1250000000000187
 40
0.1250000000000187
 40
0.1875000000000186
 40
0.1875000000000186
 40
0.2500000000000185
 40
0.2500000000000185
 40
0.3125000000000184
 40
0.3125000000000184
 40
0.3750000000000184
 40
0.3750000000000184
 40
0.4375000000000184
 40
0.4375000000000184
 40
0.5000000000000158
 40
0.5000000000000158
 40
0.5312500000000147
 40
0.5312500000000147
 40
0.5625000000000137
 40
0.5625000000000137
 40
0.6250000000000115
 40
0.6250000000000115
 40
0.6875000000000097
 40
0.6875000000000097
 40
0.7500000000000077
 40
0.7500000000000077
 40
0.8125000000000058
 40
0.8125000000000058
 40
0.8750000000000039
 40
0.8750000000000039
 40
0.9375000000000019
 40
0.9375000000000019
 40
1.0
 40
1.0
 40
1.0
 40
1.0
 10
-1.640632614882755
 20
5.006986355626259
 30
0.0
 10
-1.647012008953564
 20
5.005124117115394
 30
0.0
 10
-1.652893049179023
 20
5.001961265508956
 30
0.0
 10
-1.660122894033894
 20
4.996183990765394
 30
0.0
 10
-1.662307551907504
 20
4.994064965228304
 30
0.0
 10
-1.666114321410128
 20
4.989690120859388
 30
0.0
 10
-1.667758080012424
 20
4.987421553654491
 30
0.0
 10
-1.672036712544608
 20
4.980412476229276
 30
0.0
 10
-1.673987331786338
 20
4.97548798287108
 30
0.0
 10
-1.676315745626703
 20
4.965857130731673
 30
0.0
 10
-1.676736575123107
 20
4.961030285653108
 30
0.0
 10
-1.676265798936341
 20
4.951602312323216
 30
0.0
 10
-1.675386293392015
 20
4.947049924986463
 30
0.0
 10
-1.672390737367408
 20
4.938255887808412
 30
0.0
 10
-1.670267140702304
 20
4.934041389412062
 30
0.0
 10
-1.664862898333608
 20
4.926313166517914
 30
0.0
 10
-1.661561871937021
 20
4.922738079534513
 30
0.0
 10
-1.653497789940545
 20
4.916414670092908
 30
0.0
 10
-1.648876822408166
 20
4.913766098272203
 30
0.0
 10
-1.640799664730199
 20
4.910898512639142
 30
0.0
 10
-1.637979325293811
 20
4.910154930765849
 30
0.0
 10
-1.632040040865204
 20
4.909162311075953
 30
0.0
 10
-1.628883230448185
 20
4.908917658785329
 30
0.0
 10
-1.619340737369212
 20
4.909113454142513
 30
0.0
 10
-1.612698915664209
 20
4.910521824068284
 30
0.0
 10
-1.6006209703894
 20
4.915764559980413
 30
0.0
 10
-1.595330179880077
 20
4.919509213768623
 30
0.0
 10
-1.586970699677962
 20
4.927860431707969
 30
0.0
 10
-1.583772584974893
 20
4.932546418369292
 30
0.0
 10
-1.579213598794705
 20
4.941991025756896
 30
0.0
 10
-1.577778837668251
 20
4.946885940672934
 30
0.0
 10
-1.576384580023994
 20
4.95645488419644
 30
0.0
 10
-1.576398932957029
 20
4.961157885128092
 30
0.0
 10
-1.577708586596103
 20
4.970418489919854
 30
0.0
 10
-1.5790042500018
 20
4.974900714526627
 30
0.0
 10
-1.582784801553622
 20
4.983382456619233
 30
0.0
 10
-1.585310679942963
 20
4.987456402000602
 30
0.0
 10
-1.588444389702246
 20
4.991159822351777
 30
0.0
  0
SPLINE
  5
ED
330
1F
100
AcDbEntity
  8
0
  6
Continuous
 62
     7
370
    25
100
AcDbSpline
210
0.0
220
0.0
230
1.0
 70
     8
 71
     3
 72
    10
 73
     6
 74
     0
 42
0.00000001
 43
0.00000001
 40
0.0
 40
0.0
 40
0.0
 40
0.0
 40
0.5
 40
0.5
 40
1.0
 40
1.0
 40
1.0
 40
1.0
 10
-2.888257992034746
 20
4.44896437574874
 30
0.0
 10
-2.892457810298628
 20
4.449736095652431
 30
0.0
 10
-2.897048528186153
 20
4.449879743037661
 30
0.0
 10
-2.906480884351761
 20
4.448382109905676
 30
0.0
 10
-2.911357104696295
 20
4.446693064474472
 30
0.0
 10
-2.915743037827282
 20
4.444104614736495
 30
0.0
  0
SPLINE
  5
EE
330
1F
100
AcDbEntity
  8
0
  6
Continuous
 62
     7
370
    25
100
AcDbSpline
210
0.0
220
0.0
230
1.0
 70
     8
 71
     3
 72
    38
 73
    34
 74
     0
 42
0.00000001
 43
0.00000001
 40
0.0
 40
0.0
 40
0.0
 40
0.0
 40
0.0625
 40
0.0625
 40
0.125
 40
0.125
 40
0.1875
 40
0.1875
 40
0.25
 40
0.25
 40
0.3125
 40
0.3125
 40
0.375
 40
0.375
 40
0.4375
 40
0.4375
 40
0.5
 40
0.5
 40
0.5625
 40
0.5625
 40
0.625
 40
0.625
 40
0.6875
 40
0.6875
 40
0.75
 40
0.75
 40
0.8125
 40
0.8125
 40
0.875
 40
0.875
 40
0.9375
 40
0.9375
 40
1.0
 40
1.0
 40
1.0
 40
1.0
 10
-2.91574303782728
 20
4.444104614736495
 30
0.0
 10
-2.920686040984488
 20
4.441187398526176
 30
0.0
 10
-2.924932802410083
 20
4.437160527938536
 30
0.0
 10
-2.931113144795986
 20
4.428405233031549
 30
0.0
 10
-2.933084684123922
 20
4.423770691883906
 30
0.0
 10
-2.935318745221532
 20
4.41465608498888
 30
0.0
 10
-2.935579004317757
 20
4.410273845477304
 30
0.0
 10
-2.934815212715137
 20
4.401773849295711
 30
0.0
 10
-2.933781964421955
 20
4.397759593823439
 30
0.0
 10
-2.930650106509657
 20
4.390311328793498
 30
0.0
 10
-2.92850877657133
 20
4.386810390863144
 30
0.0
 10
-2.923271359487306
 20
4.380616852595853
 30
0.0
 10
-2.920186626326911
 20
4.377900782021856
 30
0.0
 10
-2.912912110413859
 20
4.373369572774838
 30
0.0
 10
-2.908785927859735
 20
4.371602573406326
 30
0.0
 10
-2.899541011697149
 20
4.369546800978815
 30
0.0
 10
-2.89441806716211
 20
4.369274798539478
 30
0.0
 10
-2.883731281321437
 20
4.37101221453418
 30
0.0
 10
-2.878242042291117
 20
4.373078483647903
 30
0.0
 10
-2.868651174036562
 20
4.379375794028671
 30
0.0
 10
-2.864628190897263
 20
4.383562065425547
 30
0.0
 10
-2.85892604538792
 20
4.392358213148862
 30
0.0
 10
-2.85714186914625
 20
4.396989916040643
 30
0.0
 10
-2.85525766070461
 20
4.4059998958738
 30
0.0
 10
-2.855145295355429
 20
4.41041443990737
 30
0.0
 10
-2.856189919956538
 20
4.418735713926746
 30
0.0
 10
-2.857366325228915
 20
4.422736812945153
 30
0.0
 10
-2.860778398839988
 20
4.43007298360192
 30
0.0
 10
-2.863036482946575
 20
4.433475307524757
 30
0.0
 10
-2.868559764737833
 20
4.439530642711011
 30
0.0
 10
-2.871772022999526
 20
4.442146978934093
 30
0.0
 10
-2.879235340569196
 20
4.446429340312783
 30
0.0
 10
-2.883535876672969
 20
4.448096683343198
 30
0.0
 10
-2.888257992034748
 20
4.448964375748735
 30
0.0
  0
SPLINE
  5
F1
330
1F
100
AcDbEntity
  8
0
  6
Continuous
 62
     7
370
    25
100
AcDbSpline
210
0.0
220
0.0
230
1.0
 70
     8
 71
     3
 72
    24
 73
    20
 74
     0
 42
0.00000001
 43
0.00000001
 40
0.0
 40
0.0
 40
0.0
 40
0.0
 40
0.2500000000000013
 40
0.2500000000000013
 40
0.3750000000000008
 40
0.3750000000000008
 40
0.5000000000000003
 40
0.5000000000000003
 40
0.6249999999999998
 40
0.6249999999999998
 40
0.6874999999999996
 40
0.6874999999999996
 40
0.7499999999999993
 40
0.7499999999999993
 40
0.8124999999999991
 40
0.8124999999999991
 40
0.8749999999999989
 40
0.8749999999999989
 40
1.0
 40
1.0
 40
1.0
 40
1.0
 10
1.678872543437423
 20
4.974403555183541
 30
0.0
 10
1.675891731151528
 20
4.944180168702737
 30
0.0
 10
1.668589015063783
 20
4.91532735179993
 30
0.0
 10
1.649296850958959
 20
4.874704280376053
 30
0.0
 10
1.641391856301299
 20
4.861577513560819
 30
0.0
 10
1.622621082874304
 20
4.837272199895306
 30
0.0
 10
1.611730601535984
 20
4.825986655193371
 30
0.0
 10
1.586119963932388
 20
4.805597095985666
 30
0.0
 10
1.571704507783898
 20
4.796762831207295
 30
0.0
 10
1.547485960212458
 20
4.786104791715171
 30
0.0
 10
1.538895956969216
 20
4.782958577725066
 30
0.0
 10
1.521025169235139
 20
4.777728031288148
 30
0.0
 10
1.51181795235265
 20
4.775655626591875
 30
0.0
 10
1.492849671033385
 20
4.772608211926415
 30
0.0
 10
1.483088719915474
 20
4.771632991066117
 30
0.0
 10
1.462983896045687
 20
4.770828775616738
 30
0.0
 10
1.452565639116593
 20
4.771014393419065
 30
0.0
 10
1.421584441811851
 20
4.77328669831391
 30
0.0
 10
1.400965938135799
 20
4.777024109988535
 30
0.0
 10
1.380376312305437
 20
4.782796086193355
 30
0.0
  0
SPLINE
  5
F2
330
1F
100
AcDbEntity
  8
0
  6
Continuous
 62
     7
370
    25
100
AcDbSpline
210
0.0
220
0.0
230
1.0
 70
    11
 71
     3
 72
    48
 73
    44
 74
     0
 42
0.00000001
 43
0.00000001
 40
0.0
 40
0.0
 40
0.0
 40
0.0
 40
0.0624999999999998
 40
0.0624999999999998
 40
0.1249999999999996
 40
0.1249999999999996
 40
0.1874999999999996
 40
0.1874999999999996
 40
0.2187499999999995
 40
0.2187499999999995
 40
0.2499999999999993
 40
0.2499999999999993
 40
0.2812499999999992
 40
0.2812499999999992
 40
0.3124999999999991
 40
0.3124999999999991
 40
0.3437499999999989
 40
0.3437499999999989
 40
0.3749999999999988
 40
0.3749999999999988
 40
0.437499999999998
 40
0.437499999999998
 40
0.4999999999999973
 40
0.4999999999999973
 40
0.5624999999999966
 40
0.5624999999999966
 40
0.6249999999999959
 40
0.6249999999999959
 40
0.6874999999999951
 40
0.6874999999999951
 40
0.7187499999999946
 40
0.7187499999999946
 40
0.7499999999999941
 40
0.7499999999999941
 40
0.7812499999999936
 40
0.7812499999999936
 40
0.812499999999993
 40
0.812499999999993
 40
0.8749999999999953
 40
0.8749999999999953
 40
0.9374999999999978
 40
0.9374999999999978
 40
1.0
 40
1.0
 40
1.0
 40
1.0
 10
-0.3115477011360904
 20
5.178158485070663
 30
0.0
 10
-0.31153236000534
 20
5.172503750775734
 30
0.0
 10
-0.3105862753450349
 20
5.166982602191199
 30
0.0
 10
-0.3067587014663647
 20
5.156216954520646
 30
0.0
 10
-0.3038334432703387
 20
5.15094601179768
 30
0.0
 10
-0.2958058451335003
 20
5.141451433192751
 30
0.0
 10
-0.2906261838759765
 20
5.137124748475876
 30
0.0
 10
-0.2809856602437636
 20
5.132268083746119
 30
0.0
 10
-0.2774782957140557
 20
5.130939066183469
 30
0.0
 10
-0.2700288159743972
 20
5.129083387711198
 30
0.0
 10
-0.2660510958049532
 20
5.128561155313467
 30
0.0
 10
-0.2581349396821985
 20
5.128479347375987
 30
0.0
 10
-0.2540790279681792
 20
5.128924017994724
 30
0.0
 10
-0.24646174828217
 20
5.130675352772067
 30
0.0
 10
-0.2427999010152543
 20
5.131996127495919
 30
0.0
 10
-0.2361706146445921
 20
5.135231595552625
 30
0.0
 10
-0.2331268563499601
 20
5.137177572695633
 30
0.0
 10
-0.2277684220954479
 20
5.141404944307588
 30
0.0
 10
-0.2254177553687241
 20
5.143699517447017
 30
0.0
 10
-0.2191873247337807
 20
5.151036761364062
 30
0.0
 10
-0.2162830333243229
 20
5.156319273307091
 30
0.0
 10
-0.2124309550465424
 20
5.167284362878065
 30
0.0
 10
-0.2115204610332875
 20
5.172930246887736
 30
0.0
 10
-0.2115765466778874
 20
5.184156897513342
 30
0.0
 10
-0.2125548284028408
 20
5.189793988858312
 30
0.0
 10
-0.2163977506633405
 20
5.20055149301636
 30
0.0
 10
-0.2193146205804864
 20
5.205830723438424
 30
0.0
 10
-0.2273573763804254
 20
5.21541516689951
 30
0.0
 10
-0.2325532802341409
 20
5.219792101222165
 30
0.0
 10
-0.2421143193418148
 20
5.22468375386797
 30
0.0
 10
-0.2456562524822071
 20
5.226051297097048
 30
0.0
 10
-0.2530904833679827
 20
5.227936838999764
 30
0.0
 10
-0.2570874596405171
 20
5.228473807992147
 30
0.0
 10
-0.2650286132403572
 20
5.228556015470838
 30
0.0
 10
-0.269062577191997
 20
5.228104613546035
 30
0.0
 10
-0.2766982579675157
 20
5.226315699835227
 30
0.0
 10
-0.2803425491632689
 20
5.224974877423131
 30
0.0
 10
-0.2902577728945587
 20
5.220053548666736
 30
0.0
 10
-0.2956180069258498
 20
5.215571402946791
 30
0.0
 10
-0.3038274279655542
 20
5.205809136872587
 30
0.0
 10
-0.3067879752584455
 20
5.200405864834457
 30
0.0
 10
-0.3106251764637286
 20
5.18947783043332
 30
0.0
 10
-0.311563042266841
 20
5.183813219365593
 30
0.0
 10
-0.3115477011360904
 20
5.178158485070663
 30
0.0
  0
SPLINE
  5
F6
330
1F
100
AcDbEntity
  8
0
  6
Continuous
 62
     7
370
    25
100
AcDbSpline
210
0.0
220
0.0
230
1.0
 70
     8
 71
     3
 72
     8
 73
     4
 74
     0
 42
0.00000001
 43
0.00000001
 40
0.0
 40
0.0
 40
0.0
 40
0.0
 40
1.0
 40
1.0
 40
1.0
 40
1.0
 10
1.678872543437423
 20
4.974403555183541
 30
0.0
 10
1.679872603932404
 20
4.974077502535894
 30
0.0
 10
1.680376312305437
 20
4.973913043478261
 30
0.0
 10
1.680376312305437
 20
4.973913043478261
 30
0.0
  0
LINE
  5
140
330
1F
100
AcDbEntity
  8
0
  6
Continuous
 62
     7
370
    25
100
AcDbLine
 10
2.1926079437
 20
8.3461987952
 30
0.0
 11
1.5406762295
 21
8.4891021196
 31
0.0
  0
LINE
  5
141
330
1F
100
AcDbEntity
  8
0
  6
Continuous
 62
     7
370
    25
100
AcDbLine
 10
1.9218912789
 20
8.7228999976
 30
0.0
 11
1.9441449358
 21
8.7180219997
 31
0.0
  0
LINE
  5
142
330
1F
100
AcDbEntity
  8
0
  6
Continuous
 62
     7
370
    25
100
AcDbLine
 10
2.0020445292
 20
7.4768394995
 30
0.0
 11
1.350112815
 21
7.6197428239
 31
0.0
  0
LINE
  5
143
330
1F
100
AcDbEntity
  8
0
  6
Continuous
 62
     7
370
    25
100
AcDbLine
 10
1.350112815
 20
7.6197428239
 30
0.0
 11
1.5406762295
 21
8.4891021196
 31
0.0
  0
LINE
  5
144
330
1F
100
AcDbEntity
  8
0
  6
Continuous
 62
     7
370
    25
100
AcDbLine
 10
1.8666420866
 20
8.4176504574
 30
0.0
 11
1.7329054964
 21
7.8075378174
 31
0.0
  0
LINE
  5
145
330
1F
100
AcDbEntity
  8
0
  6
Continuous
 62
     7
370
    25
100
AcDbLine
 10
2.1926079437
 20
8.3461987952
 30
0.0
 11
2.0020445292
 21
7.4768394995
 31
0.0
  0
LINE
  5
146
330
1F
100
AcDbEntity
  8
0
  6
Continuous
 62
     7
370
    25
100
AcDbLine
 10
1.0846087319
 20
6.4085006591
 30
0.0
 11
1.3415481672
 21
7.580670496
 31
0.0
  0
LINE
  5
147
330
1F
100
AcDbEntity
  8
0
  6
Continuous
 62
     7
370
    25
100
AcDbLine
 10
1.6106872
 20
7.2499721781
 30
0.0
 11
1.4674014132
 21
6.5962956526
 31
0.0
  0
LINE
  5
148
330
1F
100
AcDbEntity
  8
0
  6
Continuous
 62
     7
370
    25
100
AcDbLine
 10
1.3415481672
 20
7.580670496
 30
0.0
 11
1.9934798814
 21
7.4377671716
 31
0.0
  0
LINE
  5
149
330
1F
100
AcDbEntity
  8
0
  6
Continuous
 62
     7
370
    25
100
AcDbLine
 10
1.9934798814
 20
7.4377671716
 30
0.0
 11
1.7365404461
 21
6.2655973347
 31
0.0
  0
LINE
  5
14A
330
1F
100
AcDbEntity
  8
0
  6
Continuous
 62
     7
370
    25
100
AcDbLine
 10
1.7365404461
 20
6.2655973347
 30
0.0
 11
1.0846087319
 21
6.4085006591
 31
0.0
  0
LINE
  5
14B
330
1F
100
AcDbEntity
  8
0
  6
Continuous
 62
     7
370
    25
100
AcDbLine
 10
0.8191046488
 20
5.1972584943
 30
0.0
 11
1.076044084
 21
6.3694283312
 31
0.0
  0
LINE
  5
14C
330
1F
100
AcDbEntity
  8
0
  6
Continuous
 62
     7
370
    25
100
AcDbLine
 10
1.2048652738
 20
5.3985933869
 30
0.0
 11
1.3451831169
 21
6.0387300132
 31
0.0
  0
LINE
  5
14D
330
1F
100
AcDbEntity
  8
0
  6
Continuous
 62
     7
370
    25
100
AcDbLine
 10
1.076044084
 20
6.3694283312
 30
0.0
 11
1.7279757982
 21
6.2265250068
 31
0.0
  0
LINE
  5
14E
330
1F
100
AcDbEntity
  8
0
  6
Continuous
 62
     7
370
    25
100
AcDbLine
 10
1.7279757982
 20
6.2265250068
 30
0.0
 11
1.4710363629
 21
5.0543551698
 31
0.0
  0
LINE
  5
14F
330
1F
100
AcDbEntity
  8
0
  6
Continuous
 62
     7
370
    25
100
AcDbLine
 10
4.9625624984
 20
3.795028134
 30
0.0
 11
4.8422982031
 21
4.0477241048
 31
0.0
  0
LINE
  5
150
330
1F
100
AcDbEntity
  8
0
  6
Continuous
 62
     7
370
    25
100
AcDbLine
 10
5.1118370192
 20
3.5583091617
 30
0.0
 11
4.9625624984
 21
3.795028134
 31
0.0
  0
LINE
  5
151
330
1F
100
AcDbEntity
  8
0
  6
Continuous
 62
     7
370
    25
100
AcDbLine
 10
5.0572043321
 20
3.9730674872
 30
0.0
 11
5.1636208527
 21
3.7798417539
 31
0.0
  0
LINE
  5
152
330
1F
100
AcDbEntity
  8
0
  6
Continuous
 62
     7
370
    25
100
AcDbLine
 10
4.8337387273
 20
3.7240801435
 30
0.0
 11
4.9625624984
 21
3.795028134
 31
0.0
  0
LINE
  5
153
330
1F
100
AcDbEntity
  8
0
  6
Continuous
 62
     7
370
    25
100
AcDbLine
 10
5.1118370192
 20
3.5583091617
 30
0.0
 11
4.1646520447
 21
2.8989388987
 31
0.0
  0
LINE
  5
154
330
1F
100
AcDbEntity
  8
0
  6
Continuous
 62
     7
370
    25
100
AcDbLine
 10
4.2667024525
 20
3.3355132091
 30
0.0
 11
4.7515733274
 21
3.6730496406
 31
0.0
  0
LINE
  5
155
330
1F
100
AcDbEntity
  8
0
  6
Continuous
 62
     7
370
    25
100
AcDbLine
 10
4.746689298
 20
3.681917814
 30
0.0
 11
4.2022362449
 21
3.4525676868
 31
0.0
  0
LINE
  5
156
330
1F
100
AcDbEntity
  8
0
  6
Continuous
 62
     7
370
    25
100
AcDbLine
 10
3.7787207066
 20
3.5996934937
 30
0.0
 11
4.8422982031
 21
4.0477241048
 31
0.0
  0
LINE
  5
157
330
1F
100
AcDbEntity
  8
0
  6
Continuous
 62
     7
370
    25
100
AcDbLine
 10
4.1646520447
 20
2.8989388987
 30
0.0
 11
3.7787207066
 21
3.5996934937
 31
0.0
  0
LINE
  5
158
330
1F
100
AcDbEntity
  8
0
  6
Continuous
 62
     7
370
    25
100
AcDbLine
 10
4.2022362449
 20
3.4525676868
 30
0.0
 11
4.2667024525
 21
3.3355132091
 31
0.0
  0
LINE
  5
159
330
1F
100
AcDbEntity
  8
0
  6
Continuous
 62
     7
370
    25
100
AcDbLine
 10
4.7867029478
 20
3.65251075
 30
0.0
 11
4.8345278454
 21
3.6788496807
 31
0.0
  0
LINE
  5
15A
330
1F
100
AcDbEntity
  8
0
  6
Continuous
 62
     7
370
    25
100
AcDbLine
 10
4.7959347116
 20
3.7489251402
 30
0.0
 11
4.748109814
 21
3.7225862095
 31
0.0
  0
LINE
  5
15B
330
1F
100
AcDbEntity
  8
0
  6
Continuous
 62
     7
370
    25
100
AcDbLine
 10
4.1383737473
 20
2.8844664736
 30
0.0
 11
2.8244588819
 21
2.1608452147
 31
0.0
  0
LINE
  5
15C
330
1F
100
AcDbEntity
  8
0
  6
Continuous
 62
     7
370
    25
100
AcDbLine
 10
2.9425176032
 20
2.5683524396
 30
0.0
 11
3.7308665225
 21
3.0025251949
 31
0.0
  0
LINE
  5
15D
330
1F
100
AcDbEntity
  8
0
  6
Continuous
 62
     7
370
    25
100
AcDbLine
 10
2.4385275438
 20
2.8615998096
 30
0.0
 11
3.7524424093
 21
3.5852210685
 31
0.0
  0
LINE
  5
15E
330
1F
100
AcDbEntity
  8
0
  6
Continuous
 62
     7
370
    25
100
AcDbLine
 10
3.634383688
 20
3.1777138436
 30
0.0
 11
2.8460347687
 21
2.7435410883
 31
0.0
  0
LINE
  5
15F
330
1F
100
AcDbEntity
  8
0
  6
Continuous
 62
     7
370
    25
100
AcDbLine
 10
2.8244588819
 20
2.1608452147
 30
0.0
 11
2.4385275438
 21
2.8615998096
 31
0.0
  0
LINE
  5
160
330
1F
100
AcDbEntity
  8
0
  6
Continuous
 62
     7
370
    25
100
AcDbLine
 10
2.8460347687
 20
2.7435410883
 30
0.0
 11
2.9425176032
 21
2.5683524396
 31
0.0
  0
LINE
  5
161
330
1F
100
AcDbEntity
  8
0
  6
Continuous
 62
     7
370
    25
100
AcDbLine
 10
3.7308665225
 20
3.0025251949
 30
0.0
 11
3.634383688
 21
3.1777138436
 31
0.0
  0
LINE
  5
162
330
1F
100
AcDbEntity
  8
0
  6
Continuous
 62
     7
370
    25
100
AcDbLine
 10
3.7524424093
 20
3.5852210685
 30
0.0
 11
4.1383737473
 21
2.8844664736
 31
0.0
  0
LINE
  5
163
330
1F
100
AcDbEntity
  8
0
  6
Continuous
 62
     7
370
    25
100
AcDbLine
 10
1.5321302507
 20
0.0
 30
0.0
 11
1.585549028
 21
0.0989641006
 31
0.0
  0
LINE
  5
164
330
1F
100
AcDbEntity
  8
0
  6
Continuous
 62
     7
370
    25
100
AcDbLine
 10
1.622084747
 20
0.1666504977
 30
0.0
 11
2.5800267317
 21
1.9413423153
 31
0.0
  0
LINE
  5
165
330
1F
100
AcDbEntity
  8
0
  6
Continuous
 62
     7
370
    25
100
AcDbLine
 10
2.806940017
 20
2.1511969312
 30
0.0
 11
1.645768349
 21
0.0
 31
0.0
  0
LINE
  5
166
330
1F
100
AcDbEntity
  8
0
  6
Continuous
 62
     7
370
    25
100
AcDbLine
 10
1.6232547293
 20
0.0996222561
 30
0.0
 11
1.6049297025
 21
1.149462336
 31
0.0
  0
LINE
  5
167
330
1F
100
AcDbEntity
  8
0
  6
Continuous
 62
     7
370
    25
100
AcDbLine
 10
1.1443276833
 20
0.0912625534
 30
0.0
 11
1.6232547293
 21
0.0996222561
 31
0.0
  0
LINE
  5
168
330
1F
100
AcDbEntity
  8
0
  6
Continuous
 62
     7
370
    25
100
AcDbLine
 10
0.145768349
 20
0.0
 30
0.0
 11
1.645768349
 21
0.0
 31
0.0
  0
LINE
  5
169
330
1F
100
AcDbEntity
  8
0
  6
Continuous
 62
     7
370
    25
100
AcDbLine
 10
1.6803763123
 20
3.0812347127
 30
0.0
 11
2.4210086789
 21
2.8519515262
 31
0.0
  0
LINE
  5
16A
330
1F
100
AcDbEntity
  8
0
  6
Continuous
 62
     7
370
    25
100
AcDbLine
 10
2.4210086789
 20
2.8519515262
 30
0.0
 11
2.806940017
 21
2.1511969312
 31
0.0
  0
LINE
  5
16B
330
1F
100
AcDbEntity
  8
0
  6
Continuous
 62
     7
370
    25
100
AcDbLine
 10
2.5800267317
 20
1.9413423153
 30
0.0
 11
2.0081259815
 21
2.9797707585
 31
0.0
  0
LINE
  5
16C
330
1F
100
AcDbEntity
  8
0
  6
Continuous
 62
     7
370
    25
100
AcDbLine
 10
0.3436256958
 20
1.9225557627
 30
0.0
 11
0.5134817546
 21
2.2635981637
 31
0.0
  0
LINE
  5
16D
330
1F
100
AcDbEntity
  8
0
  6
Continuous
 62
     7
370
    25
100
AcDbLine
 10
0.6746041488
 20
2.1833512068
 30
0.0
 11
0.50474809
 21
1.8423088058
 31
0.0
  0
LINE
  5
16E
330
1F
100
AcDbEntity
  8
0
  6
Continuous
 62
     7
370
    25
100
AcDbLine
 10
0.3436256958
 20
1.9225557627
 30
0.0
 11
0.9523102961
 21
1.6194005922
 31
0.0
  0
LINE
  5
16F
330
1F
100
AcDbEntity
  8
0
  6
Continuous
 62
     7
370
    25
100
AcDbLine
 10
0.5134817546
 20
2.2635981637
 30
0.0
 11
1.1221663548
 21
1.9604429932
 31
0.0
  0
LINE
  5
170
330
1F
100
AcDbEntity
  8
0
  6
Continuous
 62
     7
370
    25
100
AcDbLine
 10
1.5851246102
 20
1.7397577755
 30
0.0
 11
1.5877424711
 21
1.5897806212
 31
0.0
  0
LINE
  5
171
330
1F
100
AcDbEntity
  8
0
  6
Continuous
 62
     7
370
    25
100
AcDbLine
 10
1.5851246102
 20
1.7397577755
 30
0.0
 11
1.1251946704
 21
1.7317296685
 31
0.0
  0
LINE
  5
172
330
1F
100
AcDbEntity
  8
0
  6
Continuous
 62
     7
370
    25
100
AcDbLine
 10
1.1278125314
 20
1.5817525142
 30
0.0
 11
1.1251946704
 21
1.7317296685
 31
0.0
  0
LINE
  5
173
330
1F
100
AcDbEntity
  8
0
  6
Continuous
 62
     7
370
    25
100
AcDbLine
 10
1.1278125314
 20
1.5817525142
 30
0.0
 11
1.5877424711
 21
1.5897806212
 31
0.0
  0
LINE
  5
174
330
1F
100
AcDbEntity
  8
0
  6
Continuous
 62
     7
370
    25
100
AcDbLine
 10
0.9523102961
 20
1.6194005922
 30
0.0
 11
0.145768349
 21
0.0
 31
0.0
  0
LINE
  5
175
330
1F
100
AcDbEntity
  8
0
  6
Continuous
 62
     7
370
    25
100
AcDbLine
 10
1.6803763123
 20
3.0812347127
 30
0.0
 11
1.1221663548
 21
1.9604429932
 31
0.0
  0
LINE
  5
176
330
1F
100
AcDbEntity
  8
0
  6
Continuous
 62
     7
370
    25
100
AcDbLine
 10
1.1778049161
 20
1.5826251345
 30
0.0
 11
1.1854935944
 21
1.1421410515
 31
0.0
  0
LINE
  5
177
330
1F
100
AcDbEntity
  8
0
  6
Continuous
 62
     7
370
    25
100
AcDbLine
 10
1.1854935944
 20
1.1421410515
 30
0.0
 11
1.1260026565
 21
1.1411026333
 31
0.0
  0
LINE
  5
178
330
1F
100
AcDbEntity
  8
0
  6
Continuous
 62
     7
370
    25
100
AcDbLine
 10
1.6049297025
 20
1.149462336
 30
0.0
 11
1.5454387646
 21
1.1484239178
 31
0.0
  0
LINE
  5
179
330
1F
100
AcDbEntity
  8
0
  6
Continuous
 62
     7
370
    25
100
AcDbLine
 10
1.5454387646
 20
1.1484239178
 30
0.0
 11
1.5377500864
 21
1.5889080009
 31
0.0
  0
LINE
  5
17A
330
1F
100
AcDbEntity
  8
0
  6
Continuous
 62
     7
370
    25
100
AcDbLine
 10
1.1260026565
 20
1.1411026333
 30
0.0
 11
1.1443276833
 21
0.0912625534
 31
0.0
  0
LINE
  5
17B
330
1F
100
AcDbEntity
  8
0
  6
Continuous
 62
     7
370
    25
100
AcDbLine
 10
1.6206368683
 20
0.2495994104
 30
0.0
 11
1.1417098223
 21
0.2412397077
 31
0.0
  0
LINE
  5
17C
330
1F
100
AcDbEntity
  8
0
  6
Continuous
 62
     7
370
    25
100
AcDbLine
 10
1.6803763123
 20
4.9739130435
 30
0.0
 11
1.6803763123
 21
3.3739130435
 31
0.0
  0
LINE
  5
17D
330
1F
100
AcDbEntity
  8
0
  6
Continuous
 62
     7
370
    25
100
AcDbLine
 10
1.6803763123
 20
3.3739130435
 30
0.0
 11
1.0053697985
 21
2.0186134807
 31
0.0
  0
LINE
  5
17E
330
1F
100
AcDbEntity
  8
0
  6
Continuous
 62
     7
370
    25
100
AcDbLine
 10
1.3803763123
 20
2.771563495
 30
0.0
 11
1.3803763123
 21
4.7827960862
 31
0.0
  0
LINE
  5
17F
330
1F
100
AcDbEntity
  8
0
  6
Continuous
 62
     7
370
    25
100
AcDbLine
 10
-1.585167646
 20
4.4601190159
 30
0.0
 11
-1.6018406983
 21
4.5172352074
 31
0.0
  0
LINE
  5
180
330
1F
100
AcDbEntity
  8
0
  6
Continuous
 62
     7
370
    25
100
AcDbLine
 10
-1.6018406983
 20
4.5172352074
 30
0.0
 11
-2.6097734885
 21
4.2230048718
 31
0.0
  0
LINE
  5
181
330
1F
100
AcDbEntity
  8
0
  6
Continuous
 62
     7
370
    25
100
AcDbLine
 10
-2.6097734885
 20
4.2230048718
 30
0.0
 11
-2.4755484116
 21
3.7631955322
 31
0.0
  0
LINE
  5
182
330
1F
100
AcDbEntity
  8
0
  6
Continuous
 62
     7
370
    25
100
AcDbLine
 10
-2.4755484116
 20
3.7631955322
 30
0.0
 11
-1.4676156214
 21
4.0574258678
 31
0.0
  0
LINE
  5
183
330
1F
100
AcDbEntity
  8
0
  6
Continuous
 62
     7
370
    25
100
AcDbLine
 10
-1.4676156214
 20
4.0574258678
 30
0.0
 11
-1.4842886738
 21
4.1145420593
 31
0.0
  0
LINE
  5
184
330
1F
100
AcDbEntity
  8
0
  6
Continuous
 62
     7
370
    25
100
AcDbLine
 10
-1.4842886738
 20
4.1145420593
 30
0.0
 11
-1.0609569019
 21
4.2381188002
 31
0.0
  0
LINE
  5
185
330
1F
100
AcDbEntity
  8
0
  6
Continuous
 62
     7
370
    25
100
AcDbLine
 10
-1.1618358741
 20
4.5836957569
 30
0.0
 11
-1.585167646
 21
4.4601190159
 31
0.0
  0
LINE
  5
186
330
1F
100
AcDbEntity
  8
0
  6
Continuous
 62
     7
370
    25
100
AcDbLine
 10
-2.0120529735
 20
2.2419507366
 30
0.0
 11
-1.6322616265
 21
2.466092506
 31
0.0
  0
LINE
  5
187
330
1F
100
AcDbEntity
  8
0
  6
Continuous
 62
     7
370
    25
100
AcDbLine
 10
-1.6322616265
 20
2.466092506
 30
0.0
 11
-1.6020202767
 21
2.4148508163
 31
0.0
  0
LINE
  5
188
330
1F
100
AcDbEntity
  8
0
  6
Continuous
 62
     7
370
    25
100
AcDbLine
 10
-1.6020202767
 20
2.4148508163
 30
0.0
 11
-0.697755165
 21
2.9485216958
 31
0.0
  0
LINE
  5
189
330
1F
100
AcDbEntity
  8
0
  6
Continuous
 62
     7
370
    25
100
AcDbLine
 10
-0.697755165
 20
2.9485216958
 30
0.0
 11
-0.9412107376
 21
3.3610388278
 31
0.0
  0
LINE
  5
18A
330
1F
100
AcDbEntity
  8
0
  6
Continuous
 62
     7
370
    25
100
AcDbLine
 10
-0.9412107376
 20
3.3610388278
 30
0.0
 11
-1.8454758494
 21
2.8273679482
 31
0.0
  0
LINE
  5
18B
330
1F
100
AcDbEntity
  8
0
  6
Continuous
 62
     7
370
    25
100
AcDbLine
 10
-1.8454758494
 20
2.8273679482
 30
0.0
 11
-1.8152344995
 21
2.7761262586
 31
0.0
  0
LINE
  5
18C
330
1F
100
AcDbEntity
  8
0
  6
Continuous
 62
     7
370
    25
100
AcDbLine
 10
-1.8152344995
 20
2.7761262586
 30
0.0
 11
-2.1950258465
 21
2.5519844892
 31
0.0
  0
LINE
  5
18D
330
1F
100
AcDbEntity
  8
0
  6
Continuous
 62
     7
370
    25
100
AcDbLine
 10
-0.3220834478
 20
4.0457175915
 30
0.0
 11
-1.3714446275
 21
4.0090963594
 31
0.0
  0
LINE
  5
18E
330
1F
100
AcDbEntity
  8
0
  6
Continuous
 62
     7
370
    25
100
AcDbLine
 10
-1.3714446275
 20
4.0090963594
 30
0.0
 11
-1.3547383702
 21
3.5303877831
 31
0.0
  0
LINE
  5
18F
330
1F
100
AcDbEntity
  8
0
  6
Continuous
 62
     7
370
    25
100
AcDbLine
 10
-1.3547383702
 20
3.5303877831
 30
0.0
 11
-0.3053771905
 21
3.5670090152
 31
0.0
  0
LINE
  5
190
330
1F
100
AcDbEntity
  8
0
  6
Continuous
 62
     7
370
    25
100
AcDbLine
 10
-0.3053771905
 20
3.5670090152
 30
0.0
 11
-0.3074523937
 21
3.6264728154
 31
0.0
  0
LINE
  5
191
330
1F
100
AcDbEntity
  8
0
  6
Continuous
 62
     7
370
    25
100
AcDbLine
 10
-0.3074523937
 20
3.6264728154
 30
0.0
 11
0.1336388664
 21
3.6418662812
 31
0.0
  0
LINE
  5
192
330
1F
100
AcDbEntity
  8
0
  6
Continuous
 62
     7
370
    25
100
AcDbLine
 10
1.0256920779
 20
3.038171924
 30
0.0
 11
0.5947753959
 21
3.1319365931
 31
0.0
  0
LINE
  5
193
330
1F
100
AcDbEntity
  8
0
  6
Continuous
 62
     7
370
    25
100
AcDbLine
 10
0.5947753959
 20
3.1319365931
 30
0.0
 11
0.6074261846
 21
3.1900761454
 31
0.0
  0
LINE
  5
194
330
1F
100
AcDbEntity
  8
0
  6
Continuous
 62
     7
370
    25
100
AcDbLine
 10
0.6074261846
 20
3.1900761454
 30
0.0
 11
-0.4185659155
 21
3.4133253575
 31
0.0
  0
LINE
  5
195
330
1F
100
AcDbEntity
  8
0
  6
Continuous
 62
     7
370
    25
100
AcDbLine
 10
-0.4185659155
 20
3.4133253575
 30
0.0
 11
-0.5204100798
 21
2.9452775328
 31
0.0
  0
LINE
  5
196
330
1F
100
AcDbEntity
  8
0
  6
Continuous
 62
     7
370
    25
100
AcDbLine
 10
-0.5204100798
 20
2.9452775328
 30
0.0
 11
0.5055820202
 21
2.7220283207
 31
0.0
  0
LINE
  5
197
330
1F
100
AcDbEntity
  8
0
  6
Continuous
 62
     7
370
    25
100
AcDbLine
 10
0.5055820202
 20
2.7220283207
 30
0.0
 11
0.5182328089
 21
2.7801678731
 31
0.0
  0
LINE
  5
198
330
1F
100
AcDbEntity
  8
0
  6
Continuous
 62
     7
370
    25
100
AcDbLine
 10
0.5182328089
 20
2.7801678731
 30
0.0
 11
0.9491494909
 21
2.686403204
 31
0.0
  0
LINE
  5
199
330
1F
100
AcDbEntity
  8
0
  6
Continuous
 62
     7
370
    25
100
AcDbLine
 10
0.464214718
 20
2.3216504897
 30
0.0
 11
0.2676096736
 21
1.926900624
 31
0.0
  0
LINE
  5
19A
330
1F
100
AcDbEntity
  8
0
  6
Continuous
 62
     7
370
    25
100
AcDbLine
 10
0.2676096736
 20
1.926900624
 30
0.0
 11
0.2143497711
 21
1.9534267014
 31
0.0
  0
LINE
  5
19B
330
1F
100
AcDbEntity
  8
0
  6
Continuous
 62
     7
370
    25
100
AcDbLine
 10
0.2143497711
 20
1.9534267014
 30
0.0
 11
-0.2537574775
 21
1.0135460686
 31
0.0
  0
LINE
  5
19C
330
1F
100
AcDbEntity
  8
0
  6
Continuous
 62
     7
370
    25
100
AcDbLine
 10
0.1750071159
 20
0.8
 30
0.0
 11
0.6431143645
 21
1.7398806328
 31
0.0
  0
LINE
  5
19D
330
1F
100
AcDbEntity
  8
0
  6
Continuous
 62
     7
370
    25
100
AcDbLine
 10
0.8221392469
 20
1.6507173473
 30
0.0
 11
0.6431143645
 21
1.7398806328
 31
0.0
  0
LINE
  5
19E
330
1F
100
AcDbEntity
  8
0
  6
Continuous
 62
     7
370
    25
100
AcDbLine
 10
0.0
 20
0.0
 30
0.0
 11
0.8355137397
 21
1.6775710797
 31
0.0
  0
LINE
  5
19F
330
1F
100
AcDbEntity
  8
0
  6
Continuous
 62
     7
370
    25
100
AcDbLine
 10
-1.2548589037
 20
0.0
 30
0.0
 11
0.0
 21
0.0
 31
0.0
  0
LINE
  5
1A0
330
1F
100
AcDbEntity
  8
0
  6
Continuous
 62
     7
370
    25
100
AcDbLine
 10
0.1210830154
 20
4.0016472571
 30
0.0
 11
-0.3200082447
 21
3.9862537913
 31
0.0
  0
LINE
  5
1A1
330
1F
100
AcDbEntity
  8
0
  6
Continuous
 62
     7
370
    25
100
AcDbLine
 10
-0.2537574775
 20
1.0135460686
 30
0.0
 11
0.1750071159
 21
0.8
 31
0.0
  0
LINE
  5
1A2
330
1F
100
AcDbEntity
  8
0
  6
Continuous
 62
     7
370
    25
100
AcDbLine
 10
-0.3200082447
 20
3.9862537913
 30
0.0
 11
-0.3220834478
 21
4.0457175915
 31
0.0
  0
LINE
  5
1A3
330
1F
100
AcDbEntity
  8
0
  6
Continuous
 62
     7
370
    25
100
AcDbLine
 10
-1.1758468424
 20
4.6316925564
 30
0.0
 11
-1.0469459335
 21
4.1901220007
 31
0.0
  0
LINE
  5
1A4
330
1F
100
AcDbEntity
  8
0
  6
Continuous
 62
     7
370
    25
100
AcDbLine
 10
1.0363229927
 20
3.0870286907
 30
0.0
 11
1.1828932927
 21
3.0551359461
 31
0.0
  0
LINE
  5
1A5
330
1F
100
AcDbEntity
  8
0
  6
Continuous
 62
     7
370
    25
100
AcDbLine
 10
1.085088876
 20
2.6056536928
 30
0.0
 11
0.938518576
 21
2.6375464373
 31
0.0
  0
LINE
  5
1A6
330
1F
100
AcDbEntity
  8
0
  6
Continuous
 62
     7
370
    25
100
AcDbLine
 10
-0.9029555349
 20
4.2321549058
 30
0.0
 11
-1.0469459335
 21
4.1901220007
 31
0.0
  0
LINE
  5
1A7
330
1F
100
AcDbEntity
  8
0
  6
Continuous
 62
     7
370
    25
100
AcDbLine
 10
1.085088876
 20
2.6056536928
 30
0.0
 11
1.1828932927
 21
3.0551359461
 31
0.0
  0
LINE
  5
1A8
330
1F
100
AcDbEntity
  8
0
  6
Continuous
 62
     7
370
    25
100
AcDbLine
 10
-1.9866400745
 20
2.1988904932
 30
0.0
 11
-2.1158208047
 21
2.1226517961
 31
0.0
  0
LINE
  5
1A9
330
1F
100
AcDbEntity
  8
0
  6
Continuous
 62
     7
370
    25
100
AcDbLine
 10
1.0856167554
 20
2.1797358749
 30
0.0
 11
0.4863309615
 21
2.4782099729
 31
0.0
  0
LINE
  5
1AA
330
1F
100
AcDbEntity
  8
0
  6
Continuous
 62
     7
370
    25
100
AcDbLine
 10
-2.3496194757
 20
2.5188060355
 30
0.0
 11
-2.1158208047
 21
2.1226517961
 31
0.0
  0
LINE
  5
1AB
330
1F
100
AcDbEntity
  8
0
  6
Continuous
 62
     7
370
    25
100
AcDbLine
 10
1.0363229927
 20
3.0870286907
 30
0.0
 11
0.938518576
 21
2.6375464373
 31
0.0
  0
LINE
  5
1AC
330
1F
100
AcDbEntity
  8
0
  6
Continuous
 62
     7
370
    25
100
AcDbLine
 10
-2.2204387455
 20
2.5950447326
 30
0.0
 11
-1.9866400745
 21
2.1988904932
 31
0.0
  0
LINE
  5
1AD
330
1F
100
AcDbEntity
  8
0
  6
Continuous
 62
     7
370
    25
100
AcDbLine
 10
-2.3496194757
 20
2.5188060355
 30
0.0
 11
-2.2204387455
 21
2.5950447326
 31
0.0
  0
LINE
  5
1AE
330
1F
100
AcDbEntity
  8
0
  6
Continuous
 62
     7
370
    25
100
AcDbLine
 10
0.1353827346
 20
3.5918967012
 30
0.0
 11
0.1193391472
 21
4.0516168371
 31
0.0
  0
LINE
  5
1AF
330
1F
100
AcDbEntity
  8
0
  6
Continuous
 62
     7
370
    25
100
AcDbLine
 10
0.1193391472
 20
4.0516168371
 30
0.0
 11
0.2692478871
 21
4.0568484417
 31
0.0
  0
LINE
  5
1B0
330
1F
100
AcDbEntity
  8
0
  6
Continuous
 62
     7
370
    25
100
AcDbLine
 10
-0.9029555349
 20
4.2321549058
 30
0.0
 11
-1.0318564438
 21
4.6737254615
 31
0.0
  0
LINE
  5
1B1
330
1F
100
AcDbEntity
  8
0
  6
Continuous
 62
     7
370
    25
100
AcDbLine
 10
0.2852914745
 20
3.5971283058
 30
0.0
 11
0.1353827346
 21
3.5918967012
 31
0.0
  0
LINE
  5
1B2
330
1F
100
AcDbEntity
  8
0
  6
Continuous
 62
     7
370
    25
100
AcDbLine
 10
0.8844756295
 20
2.1123396772
 30
0.0
 11
0.4194584974
 21
2.3439413111
 31
0.0
  0
LINE
  5
1B3
330
1F
100
AcDbEntity
  8
0
  6
Continuous
 62
     7
370
    25
100
AcDbLine
 10
0.4194584974
 20
2.3439413111
 30
0.0
 11
0.4863309615
 21
2.4782099729
 31
0.0
  0
LINE
  5
1B4
330
1F
100
AcDbEntity
  8
0
  6
Continuous
 62
     7
370
    25
100
AcDbLine
 10
-1.1758468424
 20
4.6316925564
 30
0.0
 11
-1.0318564438
 21
4.6737254615
 31
0.0
  0
LINE
  5
1B5
330
1F
100
AcDbEntity
  8
0
  6
Continuous
 62
     7
370
    25
100
AcDbLine
 10
0.2852914745
 20
3.5971283058
 30
0.0
 11
0.2692478871
 21
4.0568484417
 31
0.0
  0
LINE
  5
1B6
330
1F
100
AcDbEntity
  8
0
  6
Continuous
 62
     7
370
    25
100
AcDbLine
 10
-1.2215358875
 20
4.0143279639
 30
0.0
 11
-1.2048296302
 21
3.5356193877
 31
0.0
  0
LINE
  5
1B7
330
1F
100
AcDbEntity
  8
0
  6
Continuous
 62
     7
370
    25
100
AcDbLine
 10
-0.8269358952
 20
2.8722829988
 30
0.0
 11
-1.0703914679
 21
3.2848001307
 31
0.0
  0
LINE
  5
1B8
330
1F
100
AcDbEntity
  8
0
  6
Continuous
 62
     7
370
    25
100
AcDbLine
 10
-0.3738397798
 20
2.9133847882
 30
0.0
 11
-0.2719956155
 21
3.3814326129
 31
0.0
  0
LINE
  5
1B9
330
1F
100
AcDbEntity
  8
0
  6
Continuous
 62
     7
370
    25
100
AcDbLine
 10
0.9513480936
 20
2.246608339
 30
0.0
 11
0.8844756295
 21
2.1123396772
 31
0.0
  0
LINE
  5
1BA
330
1F
100
AcDbEntity
  8
0
  6
Continuous
 62
     7
370
    25
100
AcDbLine
 10
-0.1868850134
 20
1.1478147305
 30
0.0
 11
0.24187958
 21
0.9342686618
 31
0.0
  0
LINE
  5
1BB
330
1F
100
AcDbEntity
  8
0
  6
Continuous
 62
     7
370
    25
100
AcDbLine
 10
-2.331558013
 20
3.8052284373
 30
0.0
 11
-2.4657830899
 21
4.2650377769
 31
0.0
  0
ARC
  5
1BC
330
1F
100
AcDbEntity
  8
0
  6
Continuous
 62
     7
370
    25
100
AcDbCircle
 10
1.8434867707
 20
8.4227260989
 30
0.0
 40
0.3099999999999963
100
AcDbArc
 50
123.3969611997
 51
167.6363183541
  0
ARC
  5
1BD
330
1F
100
AcDbEntity
  8
0
  6
Continuous
 62
     7
370
    25
100
AcDbCircle
 10
1.8897974025
 20
8.412574816
 30
0.0
 40
0.3099999999999952
100
AcDbArc
 50
347.6363183541
 51
41.3449960661
  0
ARC
  5
1BE
330
1F
100
AcDbEntity
  8
0
  6
Continuous
 62
     7
370
    25
100
AcDbCircle
 10
1.7081966294
 20
7.4146131658
 30
0.0
 40
0.3937007874015759
100
AcDbArc
 50
86.401722128
 51
149.3237930665
  0
ARC
  5
1BF
330
1F
100
AcDbEntity
  8
0
  6
Continuous
 62
     7
370
    25
100
AcDbCircle
 10
1.5909880307
 20
7.4403052713
 30
0.0
 40
0.3937007874015753
100
AcDbArc
 50
5.9488436416
 51
68.8709145801
  0
ARC
  5
1C0
330
1F
100
AcDbEntity
  8
0
  6
Continuous
 62
     7
370
    25
100
AcDbCircle
 10
1.4426925463
 20
6.2033710009
 30
0.0
 40
0.3937007874015742
100
AcDbArc
 50
86.401722128
 51
149.3237930665
  0
ARC
  5
1C1
330
1F
100
AcDbEntity
  8
0
  6
Continuous
 62
     7
370
    25
100
AcDbCircle
 10
1.7526046657
 20
7.6172047242
 30
0.0
 40
0.3937007874015788
100
AcDbArc
 50
185.9488436416
 51
248.8709145801
  0
ARC
  5
1C2
330
1F
100
AcDbEntity
  8
0
  6
Continuous
 62
     7
370
    25
100
AcDbCircle
 10
1.3254839475
 20
6.2290631065
 30
0.0
 40
0.3937007874015765
100
AcDbArc
 50
5.9488436416
 51
68.8709145801
  0
ARC
  5
1C3
330
1F
100
AcDbEntity
  8
0
  6
Continuous
 62
     7
370
    25
100
AcDbCircle
 10
1.6353960669
 20
7.6428968297
 30
0.0
 40
0.3937007874015812
100
AcDbArc
 50
266.401722128
 51
329.3237930666
  0
ARC
  5
1C4
330
1F
100
AcDbEntity
  8
0
  6
Continuous
 62
     7
370
    25
100
AcDbCircle
 10
1.4871005826
 20
6.4059625594
 30
0.0
 40
0.3937007874015747
100
AcDbArc
 50
185.9488436416
 51
248.8709145801
  0
ARC
  5
1C5
330
1F
100
AcDbEntity
  8
0
  6
Continuous
 62
     7
370
    25
100
AcDbCircle
 10
1.3698919838
 20
6.4316546649
 30
0.0
 40
0.3937007874015779
100
AcDbArc
 50
266.401722128
 51
329.3237930666
  0
ARC
  5
1C6
330
1F
100
AcDbEntity
  8
0
  6
Continuous
 62
     7
370
    25
100
AcDbCircle
 10
0.2864741264
 20
1.2088496046
 30
0.0
 40
4.023816688745813
100
AcDbArc
 50
73.1640015363
 51
82.1086351719
  0
ARC
  5
1C7
330
1F
100
AcDbEntity
  8
0
  6
Continuous
 62
     7
370
    25
100
AcDbCircle
 10
4.9082939807
 20
3.8910570778
 30
0.0
 40
0.1700000000000012
100
AcDbArc
 50
28.8431944925
 51
112.8431944925
  0
ARC
  5
1C8
330
1F
100
AcDbEntity
  8
0
  6
Continuous
 62
     7
370
    25
100
AcDbCircle
 10
5.0147105012
 20
3.6978313446
 30
0.0
 40
0.1700000000000002
100
AcDbArc
 50
304.8431944925
 51
28.8431944925
  0
ARC
  5
1C9
330
1F
100
AcDbEntity
  8
0
  6
Continuous
 62
     7
370
    25
100
AcDbCircle
 10
3.9657739589
 20
3.1756416135
 30
0.0
 40
0.3407592777138319
100
AcDbArc
 50
305.7064196294
 51
27.9799693556
  0
ARC
  5
1CA
330
1F
100
AcDbEntity
  8
0
  6
Continuous
 62
     7
370
    25
100
AcDbCircle
 10
3.9062609159
 20
3.2837023856
 30
0.0
 40
0.3407592777138311
100
AcDbArc
 50
29.7064196294
 51
111.9799693556
  0
ARC
  5
1CB
330
1F
100
AcDbEntity
  8
0
  6
Continuous
 62
     7
370
    25
100
AcDbCircle
 10
4.7913188297
 20
3.7007179451
 30
0.0
 40
0.0484276782993668
100
AcDbArc
 50
202.8431944925
 51
214.8431944925
  0
ARC
  5
1CC
330
1F
100
AcDbEntity
  8
0
  6
Continuous
 62
     7
370
    25
100
AcDbCircle
 10
2.6797346301
 20
2.4236281878
 30
0.0
 40
0.3000000000000004
100
AcDbArc
 50
298.8431944925
 51
28.8431944925
  0
ARC
  5
1CD
330
1F
100
AcDbEntity
  8
0
  6
Continuous
 62
     7
370
    25
100
AcDbCircle
 10
3.9936494956
 20
3.1472494467
 30
0.0
 40
0.3
100
AcDbArc
 50
208.8431944925
 51
298.8431944925
  0
ARC
  5
1CE
330
1F
100
AcDbEntity
  8
0
  6
Continuous
 62
     7
370
    25
100
AcDbCircle
 10
3.8971666611
 20
3.3224380954
 30
0.0
 40
0.3000000000000014
100
AcDbArc
 50
118.8431944925
 51
208.8431944925
  0
ARC
  5
1CF
330
1F
100
AcDbEntity
  8
0
  6
Continuous
 62
     7
370
    25
100
AcDbCircle
 10
2.5832517956
 20
2.5988168365
 30
0.0
 40
0.2999999999999999
100
AcDbArc
 50
28.8431944925
 51
118.8431944925
  0
ARC
  5
1D0
330
1F
100
AcDbEntity
  8
0
  6
Continuous
 62
     7
370
    25
100
AcDbCircle
 10
2.1558311318
 20
3.9794157412
 30
0.0
 40
5.541045330833811
100
AcDbArc
 50
177.9884365613
 51
225.9036459897
  0
ARC
  5
1D1
330
1F
100
AcDbEntity
  8
0
  6
Continuous
 62
     7
370
    25
100
AcDbCircle
 10
2.1558311318
 20
3.9794157412
 30
0.0
 40
5.241045330833785
100
AcDbArc
 50
179.197030792
 51
229.400678688
  0
ARC
  5
1D2
330
1F
100
AcDbEntity
  8
0
  6
Continuous
 62
     7
370
    25
100
AcDbCircle
 10
-0.0675004685
 20
-0.3820279026
 30
0.0
 40
5.363930835442291
100
AcDbArc
 50
74.3399991259
 51
124.2287107828
  0
ARC
  5
1D3
330
1F
100
AcDbEntity
  8
0
  6
Continuous
 62
     7
370
    25
100
AcDbCircle
 10
-0.0675004685
 20
-0.3820279026
 30
0.0
 40
5.633930835442313
100
AcDbArc
 50
71.9423263794
 51
126.0152547174
  0
MTEXT
  5
1D5
330
1F
100
AcDbEntity
  8
0
  6
Continuous
 62
     7
100
AcDbMText
 10
-3.385214199
 20
-0.0401404091
 30
0.0
 40
0.1903
 41
0.0
 71
     1
 72
     1
  1
SOLIDWORKS Educational Product.
  7
SLDTEXTSTYLE0
 73
     1
 44
1.0
  0
MTEXT
  5
1D6
330
1F
100
AcDbEntity
  8
0
  6
Continuous
 62
     7
100
AcDbMText
 10
-3.385214199
 20
-0.3255904091
 30
0.0
 40
0.1903
 41
0.0
 71
     1
 72
     1
  1
For Instructional Use Only.
  7
SLDTEXTSTYLE0
 73
     1
 44
1.0
  0
ENDSEC
  0
SECTION
  2
OBJECTS
  0
DICTIONARY
  5
C
330
0
100
AcDbDictionary
281
     1
  3
ACAD_GROUP
350
D
  3
ACAD_LAYOUT
350
1A
  3
ACAD_MLINESTYLE
350
17
  3
ACAD_PLOTSETTINGS
350
19
  3
ACAD_PLOTSTYLENAME
350
E
  3
ACAD_SCALELIST
350
47
  3
DWGPROPS
350
1D7
  0
DICTIONARY
  5
D
102
{ACAD_REACTORS
330
C
102
}
330
C
100
AcDbDictionary
281
     1
  0
DICTIONARY
  5
1A
102
{ACAD_REACTORS
330
C
102
}
330
C
100
AcDbDictionary
281
     1
  3
Layout1
350
1E
  3
Layout2
350
26
  3
Model
350
22
  0
DICTIONARY
  5
17
102
{ACAD_REACTORS
330
C
102
}
330
C
100
AcDbDictionary
281
     1
  3
Standard
350
18
  0
DICTIONARY
  5
19
102
{ACAD_REACTORS
330
C
102
}
330
C
100
AcDbDictionary
281
     1
  0
ACDBDICTIONARYWDFLT
  5
E
102
{ACAD_REACTORS
330
C
102
}
330
C
100
AcDbDictionary
281
     1
  3
Normal
350
F
100
AcDbDictionaryWithDefault
340
F
  0
DICTIONARY
  5
47
102
{ACAD_REACTORS
330
C
102
}
330
C
100
AcDbDictionary
281
     1
  3
A0
350
48
  3
A1
350
49
  3
A2
350
4A
  3
A3
350
4B
  3
A4
350
4C
  3
A5
350
4D
  3
A6
350
4E
  3
A7
350
4F
  3
A8
350
50
  3
A9
350
51
  3
B1
350
52
  3
B2
350
53
  3
B3
350
54
  3
B4
350
55
  3
B5
350
56
  3
B6
350
57
  3
B7
350
58
  0
XRECORD
  5
1D7
102
{ACAD_REACTORS
330
C
102
}
330
C
100
AcDbXrecord
280
     1
  1
DWGPROPS COOKIE
  2

  3

  4

  6

  7

  8
Sydney Alexander
  9

300
=
301
=
302
=
303
=
304
=
305
=
306
=
307
=
308
=
309
=
 40
0.0
 41
2460973.890516598
 42
2460973.890575544
  1

 90
        0
  0
LAYOUT
  5
1E
102
{ACAD_REACTORS
330
1A
102
}
330
1A
100
AcDbPlotSettings
  1

  2
none_device
  4

  6

 40
0.0
 41
0.0
 42
0.0
 43
0.0
 44
0.0
 45
0.0
 46
0.0
 47
0.0
 48
0.0
 49
0.0
140
0.0
141
0.0
142
1.0
143
1.0
 70
   688
 72
     0
 73
     0
 74
     5
  7

 75
    16
147
1.0
148
0.0
149
0.0
100
AcDbLayout
  1
Layout1
 70
     1
 71
     1
 10
0.0
 20
0.0
 11
12.0
 21
9.0
 12
0.0
 22
0.0
 32
0.0
 14
1.0000000000E+20
 24
1.0000000000E+20
 34
1.0000000000E+20
 15
-1.0000000000E+20
 25
-1.0000000000E+20
 35
-1.0000000000E+20
146
0.0
 13
0.0
 23
0.0
 33
0.0
 16
1.0
 26
0.0
 36
0.0
 17
0.0
 27
1.0
 37
0.0
 76
     0
330
1B
  0
LAYOUT
  5
26
102
{ACAD_REACTORS
330
1A
102
}
330
1A
100
AcDbPlotSettings
  1

  2
none_device
  4

  6

 40
0.0
 41
0.0
 42
0.0
 43
0.0
 44
0.0
 45
0.0
 46
0.0
 47
0.0
 48
0.0
 49
0.0
140
0.0
141
0.0
142
1.0
143
1.0
 70
   688
 72
     0
 73
     0
 74
     5
  7

 75
    16
147
1.0
148
0.0
149
0.0
100
AcDbLayout
  1
Layout2
 70
     1
 71
     2
 10
0.0
 20
0.0
 11
0.0
 21
0.0
 12
0.0
 22
0.0
 32
0.0
 14
0.0
 24
0.0
 34
0.0
 15
0.0
 25
0.0
 35
0.0
146
0.0
 13
0.0
 23
0.0
 33
0.0
 16
1.0
 26
0.0
 36
0.0
 17
0.0
 27
1.0
 37
0.0
 76
     0
330
23
  0
LAYOUT
  5
22
102
{ACAD_REACTORS
330
1A
102
}
330
1A
100
AcDbPlotSettings
  1

  2
none_device
  4
ANSI_A_(11.00_x_8.50_Inches)
  6

 40
6.35
 41
19.05
 42
6.35000508
 43
19.05000254
 44
279.4
 45
215.9
 46
111.3254507396
 47
-17.97050127
 48
0.0
 49
0.0
140
0.0
141
0.0
142
0.963723168
143
1.0
 70
  1696
 72
     0
 73
     0
 74
     0
  7

 75
     0
147
0.5913241897
148
-39.4088153714
149
0.0
100
AcDbLayout
  1
Model
 70
     1
 71
     0
 10
0.0
 20
0.0
 11
12.0
 21
9.0
 12
0.0
 22
0.0
 32
0.0
 14
-3.385214199
 24
0.0
 34
0.0
 15
5.1847105012
 25
8.7317606127
 35
0.0
146
0.0
 13
0.0
 23
0.0
 33
0.0
 16
1.0
 26
0.0
 36
0.0
 17
0.0
 27
1.0
 37
0.0
 76
     0
330
1F
331
29
  0
MLINESTYLE
  5
18
102
{ACAD_REACTORS
330
17
102
}
330
17
100
AcDbMlineStyle
  2
Standard
 70
     0
  3

 62
   256
 51
90.0
 52
90.0
 71
     2
 49
0.5
 62
   256
  6
BYLAYER
 49
-0.5
 62
   256
  6
BYLAYER
  0
ACDBPLACEHOLDER
  5
F
102
{ACAD_REACTORS
330
E
102
}
330
E
  0
SCALE
  5
48
102
{ACAD_REACTORS
330
47
102
}
330
47
100
AcDbScale
 70
     0
300
1:1
140
1.0
141
1.0
290
     1
  0
SCALE
  5
49
102
{ACAD_REACTORS
330
47
102
}
330
47
100
AcDbScale
 70
     0
300
1/128" = 1'-0"
140
0.0078125
141
12.0
290
     0
  0
SCALE
  5
4A
102
{ACAD_REACTORS
330
47
102
}
330
47
100
AcDbScale
 70
     0
300
1/64" = 1'-0"
140
0.015625
141
12.0
290
     0
  0
SCALE
  5
4B
102
{ACAD_REACTORS
330
47
102
}
330
47
100
AcDbScale
 70
     0
300
1/32" = 1'-0"
140
0.03125
141
12.0
290
     0
  0
SCALE
  5
4C
102
{ACAD_REACTORS
330
47
102
}
330
47
100
AcDbScale
 70
     0
300
1/16" = 1'-0"
140
0.0625
141
12.0
290
     0
  0
SCALE
  5
4D
102
{ACAD_REACTORS
330
47
102
}
330
47
100
AcDbScale
 70
     0
300
3/32" = 1'-0"
140
0.09375
141
12.0
290
     0
  0
SCALE
  5
4E
102
{ACAD_REACTORS
330
47
102
}
330
47
100
AcDbScale
 70
     0
300
1/8" = 1'-0"
140
0.125
141
12.0
290
     0
  0
SCALE
  5
4F
102
{ACAD_REACTORS
330
47
102
}
330
47
100
AcDbScale
 70
     0
300
3/16" = 1'-0"
140
0.1875
141
12.0
290
     0
  0
SCALE
  5
50
102
{ACAD_REACTORS
330
47
102
}
330
47
100
AcDbScale
 70
     0
300
1/4" = 1'-0"
140
0.25
141
12.0
290
     0
  0
SCALE
  5
51
102
{ACAD_REACTORS
330
47
102
}
330
47
100
AcDbScale
 70
     0
300
3/8" = 1'-0"
140
0.375
141
12.0
290
     0
  0
SCALE
  5
52
102
{ACAD_REACTORS
330
47
102
}
330
47
100
AcDbScale
 70
     0
300
1/2" = 1'-0"
140
0.5
141
12.0
290
     0
  0
SCALE
  5
53
102
{ACAD_REACTORS
330
47
102
}
330
47
100
AcDbScale
 70
     0
300
3/4" = 1'-0"
140
0.75
141
12.0
290
     0
  0
SCALE
  5
54
102
{ACAD_REACTORS
330
47
102
}
330
47
100
AcDbScale
 70
     0
300
1" = 1'-0"
140
1.0
141
12.0
290
     0
  0
SCALE
  5
55
102
{ACAD_REACTORS
330
47
102
}
330
47
100
AcDbScale
 70
     0
300
1-1/2" = 1'-0"
140
1.5
141
12.0
290
     0
  0
SCALE
  5
56
102
{ACAD_REACTORS
330
47
102
}
330
47
100
AcDbScale
 70
     0
300
3" = 1'-0"
140
3.0
141
12.0
290
     0
  0
SCALE
  5
57
102
{ACAD_REACTORS
330
47
102
}
330
47
100
AcDbScale
 70
     0
300
6" = 1'-0"
140
6.0
141
12.0
290
     0
  0
SCALE
  5
58
102
{ACAD_REACTORS
330
47
102
}
330
47
100
AcDbScale
 70
     0
300
1'-0" = 1'-0"
140
12.0
141
12.0
290
     0
  0
ENDSEC
  0
EOF
